<?xml version="1.0" encoding="UTF-8"?>
<svg xmlns="http://www.w3.org/2000/svg" version="1.1" viewBox="0 0 175 175">
  <!-- Generator: Adobe Illustrator 30.0.0, SVG Export Plug-In . SVG Version: 2.1.1 Build 123)  -->
  <defs>
    <style>
      .st0 {
        fill: #1c2c5a;
      }

      .st1 {
        fill: #e93333;
      }

      .st2 {
        fill: #80caff;
      }

      .st3 {
        fill: #fff;
      }

      .st4 {
        fill: #1c2d5a;
      }

      .st5 {
        fill: #ffcd5f;
      }

      .st6 {
        fill: #273d63;
      }

      .st7 {
        fill: #fbe866;
      }
    </style>
  </defs>
  <rect class="st3" width="175" height="175"/>
  <g id="Layer_1">
    <g id="Generative_Object">
      <g>
        <path class="st2" d="M123.27,84.23c0,3.57.14,7.14.13,10.71,0,1.82.39,14.57-.55,14.88-1.48.08-3.3-.83-4.67-.84-10.51-.09-56.8,1.87-62.98-1.52-7.8-4.28-5.76-10.17-6.02-17.54.78.13,2.03-.86,2.69-1.29,2.48-1.64,4.71-3.79,7.74-4.43h61.78s1.88.04,1.88.04Z"/>
        <path class="st7" d="M59.61,84.19c-3.03.65-5.27,2.8-7.74,4.43-.65.43-1.91,1.42-2.69,1.29-.6-17.4-.29-36.08,0-53.55,3.75,1.24,3.29-4.28,4.41-6.62.81-1.68,2.75-3.67,3.21-4.61l3.21,2.01v46.13c-1.95,2.88-.23,7.63-.4,10.92Z"/>
        <g>
          <path class="st1" d="M123.27,84.23l-1.88-.03h-61.78c.17-3.29-1.55-8.05.4-10.92V27.14l-3.21-2.01c.99-2.02.54-3.69.8-4.21,2.18-4.29,5.19-6.61,9.83-7.82,2.43-.64,11.11-.79,12.04-1.2,1.02-.45.47-2.5.6-3.37,14.34-.25,28.71.2,43.03-.22.08,25.3.19,50.61.17,75.92Z"/>
          <g>
            <path class="st5" d="M76.46,29.95c.86-.32,3.04.11,4.01.4,2.43.72,25.9,13.07,27.68,14.6,2.07,1.78,3.42,4.14,1.44,6.66-.98,1.26-24.59,14.78-27.52,16.13-3.34,1.53-6.42,2.58-8.75-1.28-.82-1.37-1.19-29.08-.64-31.69.47-2.25,1.49-3.98,3.77-4.81Z"/>
            <path class="st6" d="M77.43,70.66c-1.9,0-3.87-.8-5.43-3.4-.26-.43-.81-1.34-1.06-16.16-.09-5.35-.15-14.89.23-16.66.64-3.07,2.2-5.02,4.76-5.95h0c1.65-.6,4.85.33,4.99.37,2.64.78,26.41,13.33,28.25,14.92,3.24,2.79,3.84,5.99,1.65,8.79-.26.33-.86,1.1-13.47,8.42-5.91,3.43-12.99,7.42-14.62,8.16-1.35.62-3.29,1.51-5.29,1.51ZM74.74,65.78c1.49,2.39,3.07,2.21,6.69.55,3.18-1.46,25.23-14.2,26.99-15.74.5-.65,1.48-2.09-1.28-4.46-1.6-1.35-24.91-13.64-27.11-14.29-1.06-.31-2.62-.53-3.05-.43-1.52.56-2.35,1.66-2.77,3.67-.53,2.51-.08,28.12.53,30.69ZM74.76,65.86h0,0ZM108.38,50.65s0,0-.01.01c0,0,0,0,.01-.01Z"/>
          </g>
        </g>
      </g>
      <g>
        <path class="st4" d="M60.01,75.07c-.77,0-1.39-.62-1.39-1.39V26.34c0-.77.62-1.39,1.39-1.39s1.39.62,1.39,1.39v47.34c0,.77-.62,1.39-1.39,1.39Z"/>
        <path class="st0" d="M70.04,98.75c-.76,0-1.38-.62-1.39-1.38,0-.77.61-1.4,1.38-1.4l51.75-.42h.01c.76,0,1.38.62,1.39,1.38,0,.77-.61,1.4-1.38,1.4l-51.75.42h-.01Z"/>
        <path class="st0" d="M122.67,111.22c-.93,0-1.89-.26-2.73-.49-.64-.17-1.31-.36-1.77-.36-2.37-.02-6.51.06-11.76.17-24.65.49-47.16.73-51.88-1.86-7.04-3.86-6.91-9.14-6.76-14.72.03-1.29.07-2.62.02-3.99-.61-17.63-.28-36.75,0-53.62.24-14.28.49-21.31,3.6-25.16,3.22-3.99,8.69-3.99,19.61-3.99,2.66,0,5.67,0,9.05-.06,6.42-.11,12.94-.08,19.24-.06,7.8.03,15.86.07,23.77-.16.38,0,.74.13,1.01.39.27.26.42.62.42.99l.04,11.08c.07,21.25.15,43.23.13,64.84,0,1.7.03,3.43.07,5.11.04,1.83.07,3.73.06,5.61,0,.29,0,.9.02,1.68.03,1.97.09,5.26.03,8.05-.1,5.17-.46,6.11-1.56,6.48-.12.04-.24.06-.36.07-.08,0-.17,0-.25,0ZM117.37,107.59c.29,0,.57,0,.82,0,.81,0,1.66.24,2.47.46.41.11.83.22,1.21.3.2-1.64.25-5.56.15-11.68-.01-.82-.02-1.42-.02-1.73h0c0-1.84-.03-3.72-.06-5.54-.03-1.69-.07-3.44-.07-5.17.01-21.61-.06-43.58-.13-64.83l-.03-9.66c-7.49.19-15.08.16-22.43.12-6.29-.03-12.8-.05-19.18.06-3.4.06-6.43.06-9.1.06-10.04,0-15.06,0-17.44,2.95-2.52,3.13-2.76,10.2-2.98,23.46-.28,16.84-.6,35.92,0,53.48.05,1.46.01,2.83-.02,4.16-.14,5.52-.24,9.16,5.32,12.21,4.46,2.45,34.4,1.84,50.48,1.52,4.72-.09,8.55-.17,11.02-.17Z"/>
        <path class="st0" d="M51.87,90.02c-.45,0-.89-.22-1.16-.62-.42-.64-.25-1.5.39-1.93.59-.39,1.16-.81,1.77-1.25,1.91-1.39,3.88-2.83,6.45-3.38.1-.02.19-.03.29-.03h61.78c.77,0,1.39.63,1.39,1.4,0,.77-.62,1.39-1.39,1.39h-61.62c-1.93.44-3.54,1.62-5.25,2.87-.61.44-1.23.9-1.88,1.33-.24.16-.5.23-.76.23Z"/>
      </g>
    </g>
    <g>
      <path class="st0" d="M34.31,138.8c-.11.75-.29,1.15-.55,1.22-.37.1-1.08,0-2.12-.34-1.11-.35-1.74-.69-1.89-1.04-.05-.12-.07-.25-.07-.39,0-.1.02-.27.06-.51.04-.23.06-.43.06-.58v-11.8c-.72,1.59-1.67,5.18-2.84,10.76-.02.07-.02.15-.02.23,0,.17.03.45.08.83s.08.62.08.73c-.02.54-.04.88-.07,1.04-.08.35-.24.55-.48.62-.15.05-.42.08-.81.08-2,0-3.38-.39-4.13-1.17-.12-.12-.17-.34-.14-.65.03-.38.03-.63,0-.75-.57-1.98-1.08-3.71-1.52-5.2-1.08-3.6-1.78-5.73-2.1-6.37v10.35c0,.23.06.54.19.94.15.49.24.79.25.91.06.35.08.76.05,1.25-.03.59-.14.95-.32,1.09-.09.07-.27.1-.53.1-.57,0-1.25-.11-2.03-.34-.85-.23-1.35-.46-1.5-.7-.08-.12-.12-.27-.12-.44,0-.1.03-.28.08-.52.05-.24.08-.43.08-.57v-18.43c0-.21.08-.45.23-.72.15-.27.33-.45.53-.53.26-.12,1.27.09,3.02.62,1.83.54,2.8,1.01,2.91,1.4.05.16.05.36.02.62-.05.36-.07.58-.07.65,0,.16.02.29.07.42l3.12,9.44c.43-1.54,1.22-4.67,2.36-9.39.57-2.41,1.03-3.67,1.39-3.77.11-.03.23-.05.37-.05.26,0,.7.08,1.32.23.68.19,1.15.29,1.41.31,1.22.12,1.92.2,2.1.23.72.16,1.13.44,1.22.86.03.12.05.25.05.39,0,.17-.04.42-.12.74-.08.32-.12.56-.12.71v15.91c0,.17.1.43.29.78.19.35.27.61.24.78Z"/>
      <path class="st0" d="M45.28,134.74c.14.26-.16,1.03-.9,2.31-.8,1.37-1.59,2.3-2.36,2.78-.09.05-.23.08-.42.08-.6,0-1.39-.21-2.36-.62-1.03-.42-1.71-.87-2.03-1.35-.89-1.3-1.34-3.1-1.34-5.41,0-2.18.39-4.11,1.18-5.77.85-1.82,1.92-2.75,3.23-2.78.48-.02,1.05.12,1.73.42.83.36,1.52.86,2.05,1.48.14.16.27.62.39,1.4.15.83.23,1.65.23,2.44,0,1.18-.17,1.99-.51,2.44-1.59.57-3.2.89-4.85.96-.03.85.06,1.74.28,2.68.22.94.44,1.41.67,1.43.31.02.68-.27,1.11-.86.38-.5.62-.93.72-1.27.11-.52.25-1.06.44-1.61.25-.03.73.1,1.46.42.72.31,1.15.59,1.27.83ZM41.17,126.79c-.26-.03-.63.43-1.1,1.4-.47.97-.74,1.9-.82,2.78.69-.03,1.25-.23,1.66-.57.25-.21.37-1.07.37-2.6,0-.64-.04-.98-.12-1.01Z"/>
      <path class="st0" d="M57.94,119.3c.03.17-.03.51-.17,1.01-.15.5-.22.79-.22.86v16.95c0,.57.04.93.12,1.07.23.45.3.75.21.91-.08.14-.28.21-.6.21-.35,0-.89-.08-1.62-.23-.82-.19-1.25-.29-1.29-.29-.28-.03-.48-.24-.6-.62-.02-.03-.02-.15-.02-.34,0-.71.08-1.77.25-3.17-.37.83-.73,1.66-1.08,2.5-.51,1.02-.96,1.49-1.36,1.4-3.03-.69-4.55-2.79-4.55-6.29,0-1.99.48-4.02,1.46-6.08.94-1.99,1.97-3.29,3.09-3.9.15-.09.3-.13.44-.13.38,0,1.05.54,2.01,1.61v-5.04c-.02-.14-.08-.39-.21-.74-.12-.35-.18-.62-.18-.79,0-.36.22-.55.65-.55.38,0,.94.12,1.66.36.46.17.92.34,1.36.49.38.12.61.39.67.81ZM53.92,126.01c-.86.43-1.64,1.39-2.34,2.86-.7,1.47-1.05,2.84-1.05,4.11,0,1.47.51,2.28,1.52,2.42.54.07,1.16-3.06,1.87-9.39Z"/>
      <path class="st0" d="M64.33,138.77c.06.62-.13,1.01-.58,1.17-.08.02-.18.03-.32.03-.55,0-1.24-.13-2.06-.39-.88-.28-1.39-.57-1.55-.88-.08-.14,0-.41.21-.81.14-.26.21-.74.21-1.43v-10.92c-.18-.66-.28-1.1-.28-1.33s.28-.34.85-.34c.46,0,1.1.16,1.93.48s1.32.6,1.49.84c.05.07.07.16.07.26,0,.14-.09.4-.27.78-.18.38-.27.67-.27.86v10.45c0,.17.09.39.27.65.18.26.27.45.29.57ZM64.4,120.81s.02.1.02.21c0,.38-.07.88-.21,1.48-.15.66-.3,1.02-.44,1.09-.15.07-.82-.12-1.99-.56-1.17-.44-1.79-.76-1.87-.95-.05-.09-.07-.22-.07-.39,0-.47.11-.96.32-1.48.25-.59.52-.92.83-.99.35-.07.97.08,1.85.46.88.37,1.39.75,1.55,1.13Z"/>
      <path class="st0" d="M76.76,138.72c-.02.24-.11.45-.28.62-.17.17-.36.24-.58.21-1.91-.29-2.97-.7-3.19-1.22-.03-.07-.05-.14-.05-.21,0-.09.03-.18.1-.29s.11-.2.13-.27c.02-.08.05-.15.09-.22.03-.14.04-.44.02-.91-.19.16-.46.57-.83,1.25-.38.75-.72,1.27-1.02,1.56-.49.52-1.05.78-1.69.78-.37,0-.73-.17-1.09-.49-.17-.16-.47-.49-.9-1.01-.74-.94-1.14-1.45-1.2-1.53-.32-.49-.48-.94-.48-1.38,0-.14.01-.28.05-.42.29-1.53,1.2-2.97,2.72-4.34,1.11-.99,2.68-2.04,4.71-3.15,0-.55-.12-.91-.37-1.07-.15-.1-.69.09-1.62.58s-1.57.91-1.94,1.26c-.12.14-.32.33-.6.57-.26.17-.5.23-.72.16-.17-.05-.53-.36-1.08-.94-.55-.57-.85-.95-.9-1.14-.12-.47,0-.83.39-1.09.01-.02.32-.12.92-.31.57-.35,1.14-.69,1.71-1.04,1.2-.64,2.22-.99,3.05-1.04.35-.02.75.19,1.2.62.4.4.8.79,1.21,1.18s.83.77,1.26,1.13c.49.49.74.95.74,1.4v9.83c.15.45.22.75.21.91ZM73.06,131.13c-.75.33-1.4.83-1.94,1.51-.4.56-.8,1.1-1.2,1.64-.32.36-.63.84-.91,1.42-.29.58-.43,1.01-.43,1.29,0,.14.05.21.14.21.32,0,1.05-.78,2.17-2.35s1.85-2.8,2.17-3.71Z"/>
      <path class="st0" d="M94.01,136.07c-.18.81-.48,1.31-.88,1.48-.12.05-.29.06-.5.03-.21-.03-.36-.03-.45.03l-3.42,1.61c-.11.05-.22.2-.33.44s-.23.38-.33.42c-.34.14-1.05,0-2.15-.39s-1.75-.77-1.99-1.12c-.17-.28-.22-.71-.16-1.3.03-.28.05-.49.05-.65v-17.47c-.03-.17-.09-.32-.18-.44-.09-.12-.14-.23-.14-.31.03-.33.3-.57.81-.73.32-.09,1.02.04,2.1.39,1.22.4,1.83.87,1.85,1.4,0,.14-.08.35-.25.62-.17.28-.25.49-.25.62v14.38l2.4-1.17c.14-.14.4-.29.79-.47.21-.03.79.33,1.73,1.1.94.77,1.38,1.28,1.32,1.52Z"/>
      <path class="st0" d="M99.13,138.77c.06.62-.13,1.01-.58,1.17-.08.02-.18.03-.32.03-.55,0-1.24-.13-2.06-.39-.88-.28-1.39-.57-1.55-.88-.08-.14,0-.41.21-.81.14-.26.21-.74.21-1.43v-10.92c-.18-.66-.28-1.1-.28-1.33s.28-.34.85-.34c.46,0,1.1.16,1.93.48s1.32.6,1.49.84c.05.07.07.16.07.26,0,.14-.09.4-.27.78-.18.38-.27.67-.27.86v10.45c0,.17.09.39.27.65.18.26.27.45.29.57ZM99.2,120.81s.02.1.02.21c0,.38-.07.88-.21,1.48-.15.66-.3,1.02-.44,1.09-.15.07-.82-.12-1.99-.56-1.17-.44-1.79-.76-1.87-.95-.05-.09-.07-.22-.07-.39,0-.47.11-.96.32-1.48.25-.59.52-.92.83-.99.35-.07.97.08,1.85.46.88.37,1.39.75,1.55,1.13Z"/>
      <path class="st0" d="M111.37,126.16c.35.83.53,1.86.53,3.09,0,1.63-.29,3.39-.85,5.28-.55,1.77-1.19,3.16-1.89,4.16-.08.29-.12.48-.14.55-.06.19-.15.35-.28.47-.22.19-.58.29-1.09.31-.45,0-.88-.16-1.32-.47-.05-.03-.4-.34-1.06-.91.01.12.07.31.16.57.05.17.05.33,0,.47-.12.38-.32.59-.6.62-.35.03-.99-.1-1.92-.4s-1.46-.58-1.59-.82c-.09-.16-.02-.46.21-.91.08-.16.12-.52.12-1.09v-17.47c0-.09-.07-.25-.22-.48s-.2-.44-.17-.61c.09-.55.41-.83.95-.83.51,0,1.17.16,2,.49.82.33,1.3.67,1.44,1.01.06.16.01.43-.15.83-.16.4-.26.73-.29.99v4.26c1.25-1.4,2.25-2.05,3-1.95.52.07,1.08.36,1.69.88.66.54,1.16,1.19,1.48,1.95ZM108.67,126.32c-.58.26-1.25.79-1.99,1.59-.74.8-1.21,1.46-1.41,2v7.02c.11.14.29.29.55.47.51.1,1.12-1.17,1.85-3.82.71-2.58,1.06-4.71,1.06-6.4,0-.35-.02-.63-.07-.86Z"/>
      <path class="st0" d="M122.41,125.51c.06.28-.02.5-.25.68-.18.1-.36.22-.53.34-.97,1.66-2.29,3.91-3.95,6.73,0,2.76,0,4.18.02,4.26.02.09.07.31.17.66.1.36.15.64.15.84,0,.33-.13.55-.39.68-.17.09-.4.13-.69.13-.59,0-1.23-.15-1.94-.44-.89-.35-1.34-.79-1.34-1.33,0-.16.06-.41.18-.75s.18-.63.18-.86v-10.3c-.17-.97-.25-1.47-.25-1.51,0-.54.22-.88.65-1.01.18-.05.41-.08.67-.08.54,0,1.1.1,1.7.3.59.2.94.41,1.05.64.03.07.05.16.05.26,0,.09-.11.5-.32,1.25v1.25c.37-.75.73-1.49,1.09-2.24.48-.94.83-1.43,1.06-1.48.34-.07.85.16,1.55.68.69.52,1.08.95,1.15,1.3Z"/>
      <path class="st0" d="M134.37,138.72c-.02.24-.11.45-.28.62-.17.17-.36.24-.58.21-1.91-.29-2.97-.7-3.19-1.22-.03-.07-.05-.14-.05-.21,0-.09.03-.18.1-.29s.11-.2.13-.27c.02-.08.05-.15.09-.22.03-.14.04-.44.02-.91-.19.16-.46.57-.83,1.25-.38.75-.72,1.27-1.02,1.56-.49.52-1.05.78-1.69.78-.37,0-.73-.17-1.09-.49-.17-.16-.47-.49-.9-1.01-.74-.94-1.14-1.45-1.2-1.53-.32-.49-.48-.94-.48-1.38,0-.14.01-.28.05-.42.29-1.53,1.2-2.97,2.72-4.34,1.11-.99,2.68-2.04,4.71-3.15,0-.55-.12-.91-.37-1.07-.15-.1-.69.09-1.62.58s-1.57.91-1.94,1.26c-.12.14-.32.33-.6.57-.26.17-.5.23-.72.16-.17-.05-.53-.36-1.08-.94-.55-.57-.85-.95-.9-1.14-.12-.47,0-.83.39-1.09.01-.02.32-.12.92-.31.57-.35,1.14-.69,1.71-1.04,1.2-.64,2.22-.99,3.05-1.04.35-.02.75.19,1.2.62.4.4.8.79,1.21,1.18s.83.77,1.26,1.13c.49.49.74.95.74,1.4v9.83c.15.45.22.75.21.91ZM130.68,131.13c-.75.33-1.4.83-1.94,1.51-.4.56-.8,1.1-1.2,1.64-.32.36-.63.84-.91,1.42-.29.58-.43,1.01-.43,1.29,0,.14.05.21.14.21.32,0,1.05-.78,2.17-2.35s1.85-2.8,2.17-3.71Z"/>
      <path class="st0" d="M145.2,125.51c.06.28-.02.5-.25.68-.18.1-.36.22-.53.34-.97,1.66-2.29,3.91-3.95,6.73,0,2.76,0,4.18.02,4.26.02.09.07.31.17.66.1.36.15.64.15.84,0,.33-.13.55-.39.68-.17.09-.4.13-.69.13-.59,0-1.23-.15-1.94-.44-.89-.35-1.34-.79-1.34-1.33,0-.16.06-.41.18-.75s.18-.63.18-.86v-10.3c-.17-.97-.25-1.47-.25-1.51,0-.54.22-.88.65-1.01.18-.05.41-.08.67-.08.54,0,1.1.1,1.7.3.59.2.94.41,1.05.64.03.07.05.16.05.26,0,.09-.11.5-.32,1.25v1.25c.37-.75.73-1.49,1.09-2.24.48-.94.83-1.43,1.06-1.48.34-.07.85.16,1.55.68.69.52,1.08.95,1.15,1.3Z"/>
      <path class="st0" d="M158.92,125.23c.03.14.05.27.05.39,0,.29-.12.6-.35.91-.29.4-.46.68-.51.83l-4.6,14.9c-.03.35-.06.69-.09,1.04-.06.55-.22.87-.46.94-.08.02-.16.03-.25.03-.42,0-.93-.13-1.55-.38-.62-.25-1.04-.5-1.28-.75-.24-.25-.36-.52-.36-.79,0-.24.11-.56.32-.95s.34-.64.37-.74l.76-2.94-3.74-10.35c-.03-.07-.17-.24-.42-.52-.2-.23-.33-.57-.39-1.04-.03-.21.37-.58,1.21-1.1.84-.53,1.5-.79,1.97-.79.12,0,.22.03.3.08.25.16.43.45.55.88.08.38.16.75.25,1.12l2.03,6.32,2.17-6.5c.09-.35.19-.69.3-1.04.11-.35.27-.56.49-.65.14-.05.31-.08.51-.08.51,0,1.07.13,1.69.4.62.27.96.53,1.02.79Z"/>
    </g>
  </g>
</svg>