<?xml version="1.0" encoding="UTF-8"?>
<svg xmlns="http://www.w3.org/2000/svg" version="1.1" viewBox="0 0 175 175">
  <!-- Generator: Adobe Illustrator 30.0.0, SVG Export Plug-In . SVG Version: 2.1.1 Build 123)  -->
  <defs>
    <style>
      .st0 {
        fill: #1c2c5a;
      }

      .st1 {
        fill: #d10d0d;
      }

      .st2 {
        fill: #e93333;
      }

      .st3 {
        fill: #fff;
      }

      .st4 {
        fill: #ffcd5f;
      }

      .st5 {
        fill: #273d63;
      }

      .st6 {
        fill: #fc4c4c;
      }
    </style>
  </defs>
  <rect class="st3" width="175" height="175"/>
  <g id="Layer_1">
    <g id="Generative_Object">
      <g>
        <g>
          <path class="st6" d="M61.18,14.37c.02,3.25-1.53,9.45,3.51,9.86,5.75.47,4.08-6.66,4.12-9.86,0-.07,0-.15,0-.22,0,.07,0,.15,0,.22.41-.16.84-.1,1.27-.11,8.89-.26,17.83.14,26.72,0,.43,0,.86.07,1.27-.11-.01,3.27-1.73,10.37,3.9,10.12,4.91-.21,3.83-6.92,3.82-10.27.45.09.9,0,1.35,0,23.09.29,20.86.64,21.09,22.73-.44-.02-.89-.01-1.33-.02-28.96-.17-57.94-.05-86.91,0-.45,0-.9,0-1.35.01.27-22.21-2.02-22.72,21.33-22.42.41,0,.81-.13,1.21.06Z"/>
          <g>
            <path class="st1" d="M68.8,14.15c0,.07,0,.15,0,.22-.04,3.21,1.62,10.33-4.12,9.86-5.04-.41-3.49-6.61-3.51-9.86s-1.4-8.39,2.84-9.67c5.24-1.59,4.86,4.5,4.94,7.32.02.64-.15,1.42-.15,2.13Z"/>
            <path class="st5" d="M65.21,25.93c-.21,0-.43,0-.66-.03-2.55-.21-4.25-1.61-4.92-4.05-.49-1.79-.35-3.82-.22-5.61.05-.69.09-1.35.09-1.87,0-.55-.05-1.19-.1-1.87-.24-3.18-.61-7.98,4.13-9.42,1.89-.58,3.48-.41,4.71.49,2.31,1.69,2.36,5.3,2.39,7.68,0,.25,0,.49.01.71.01.45-.04.89-.08,1.31-.03.31-.07.61-.07.86v.03c0,.07,0,.14,0,.22,0,.49.04,1.13.08,1.82.19,2.81.42,6.3-1.66,8.34-.93.92-2.18,1.38-3.71,1.38ZM65.58,6.11c-.35,0-.74.09-1.07.19-1.86.56-2.04,2.21-1.75,5.95.06.74.11,1.44.11,2.11,0,.65-.05,1.37-.1,2.12-.32,4.61.12,5.91,2.06,6.07,1.22.1,1.6-.28,1.73-.4.97-.96.79-3.82.66-5.72-.05-.75-.1-1.46-.09-2.08v-.02c0-.06,0-.13,0-.19h0c0-.44.05-.86.09-1.23.04-.33.07-.63.06-.85,0-.23,0-.49-.01-.76-.02-1.51-.06-4.31-1.01-5.01-.18-.13-.41-.18-.67-.18Z"/>
          </g>
          <g>
            <path class="st1" d="M105.78,14.01c.02,3.35,1.09,10.05-3.82,10.27-5.62.25-3.91-6.85-3.9-10.12s-1.6-8.13,2.77-9.46c5.09-1.55,4.82,4.44,4.94,7.32.03.66,0,1.33,0,1.99Z"/>
            <path class="st5" d="M101.68,25.96c-1.61,0-2.91-.5-3.87-1.49-2.04-2.11-1.76-5.65-1.54-8.49.05-.69.1-1.34.11-1.84,0-.62-.06-1.32-.13-2.07-.27-3-.68-7.54,4.1-8.99,1.84-.56,3.39-.4,4.61.48,2.31,1.66,2.41,5.28,2.48,7.68,0,.25.01.49.02.71.02.46.01.92,0,1.36,0,.23,0,.47,0,.7,0,.43.02.95.05,1.49.08,1.85.18,4.15-.35,6.11-.72,2.69-2.54,4.24-5.13,4.35-.12,0-.24,0-.35,0ZM102.34,6.13c-.33,0-.7.08-1.01.18-1.84.56-2.05,1.86-1.72,5.47.07.79.15,1.62.14,2.39,0,.62-.06,1.33-.12,2.09-.15,1.94-.38,4.87.6,5.89.12.13.49.51,1.65.46,1.69-.07,2.5-1.17,2.26-6.96-.02-.58-.05-1.13-.05-1.62h0c0-.25,0-.51,0-.76,0-.41.01-.8,0-1.17,0-.23-.02-.48-.02-.75-.04-1.52-.12-4.35-1.08-5.04-.17-.12-.4-.17-.65-.17Z"/>
          </g>
          <g>
            <path class="st4" d="M90.86,46.48c.95-.09,8.31-.2,8.6.11-.03,1.41,0,8.6-.91,8.98l-9.54.31c.41-1.86-.54-7.56,0-8.94.3-.76,1.25-.41,1.84-.46Z"/>
            <path class="st5" d="M89.02,57.35c-.43,0-.84-.19-1.12-.53-.29-.35-.4-.81-.3-1.25.15-.69.03-2.52-.07-4-.17-2.57-.25-4.19.13-5.17.62-1.56,2.19-1.44,2.78-1.4.09,0,.23.02.28.02.57-.05,2.77-.11,4.68-.1,4.48,0,4.67.19,5.11.66.27.28.41.65.4,1.04,0,.16,0,.4-.01.7-.09,7.61-.53,9.07-1.79,9.6-.16.07-.34.11-.52.11l-9.54.31s-.03,0-.05,0ZM90.32,47.93c-.05.82.05,2.36.13,3.45.07,1.07.14,2.1.14,2.99l7.03-.23c.16-.82.31-2.59.37-6.26-2.03-.08-6.2-.03-6.98.05h0c-.25.02-.48.01-.69,0ZM90.86,46.48h0,0Z"/>
          </g>
          <g>
            <path class="st4" d="M107.06,46.48c.95-.09,8.31-.2,8.6.11-.03,1.41,0,8.6-.91,8.98l-9.54.31c.41-1.86-.54-7.56,0-8.94.3-.76,1.25-.41,1.84-.46Z"/>
            <path class="st5" d="M105.22,57.35c-.43,0-.84-.19-1.12-.53-.29-.35-.4-.81-.3-1.25.15-.69.03-2.52-.07-4-.17-2.57-.25-4.19.13-5.17.62-1.56,2.19-1.44,2.78-1.4.09,0,.23.02.28.02.57-.05,2.72-.1,4.63-.1h.05c4.48,0,4.67.19,5.11.66.27.28.41.65.4,1.04,0,.16,0,.4-.01.7-.09,7.61-.53,9.07-1.79,9.6-.16.07-.34.11-.52.11l-9.54.31s-.03,0-.05,0ZM106.52,47.93c-.05.82.05,2.36.13,3.45.07,1.07.14,2.1.14,2.99l7.03-.23c.16-.82.31-2.59.37-6.26-2.03-.08-6.2-.03-6.98.05-.25.02-.48.01-.69,0Z"/>
          </g>
          <g>
            <path class="st4" d="M107.06,62.29c.95-.09,8.31-.2,8.6.11-.03,1.41,0,8.6-.91,8.98l-9.54.31c.41-1.86-.54-7.56,0-8.94.3-.76,1.25-.41,1.84-.46Z"/>
            <path class="st5" d="M105.22,73.16c-.43,0-.84-.19-1.12-.53-.29-.35-.4-.81-.3-1.25.15-.69.03-2.52-.07-4-.17-2.57-.25-4.19.13-5.17.62-1.56,2.19-1.44,2.78-1.4.09,0,.23.02.28.02.57-.05,2.75-.11,4.68-.1,4.48,0,4.67.19,5.11.66.27.28.41.65.4,1.04,0,.16,0,.4-.01.7-.09,7.61-.53,9.07-1.79,9.6-.16.07-.34.11-.52.11l-9.54.31s-.03,0-.05,0ZM106.52,63.74c-.05.82.05,2.36.13,3.45.07,1.07.14,2.1.14,2.99l7.03-.23c.16-.82.31-2.59.37-6.26-2.04-.08-6.2-.03-6.98.05h0c-.25.02-.48.01-.69,0ZM107.06,62.29h0,0Z"/>
          </g>
          <g>
            <polygon class="st4" points="51.79 63.06 61.26 63.3 61.53 71.98 51.79 72.25 51.55 72.24 51.79 63.06"/>
            <path class="st5" d="M51.79,73.71s-.02,0-.03,0h-.23c-.39-.01-.76-.18-1.03-.46-.27-.28-.41-.66-.4-1.05l.24-9.18c.02-.81.69-1.44,1.5-1.42l9.47.25c.77.02,1.4.64,1.42,1.41l.27,8.68c.01.39-.13.76-.4,1.05-.27.28-.63.45-1.02.46l-9.74.27s-.03,0-.04,0ZM53.21,64.56l-.16,6.2,6.97-.19-.18-5.83-6.63-.17Z"/>
          </g>
          <g>
            <path class="st4" d="M56.45,79.94c.76,0,4.7-.19,4.97.27l-.04,8.67-9.93.29h0l.25-8.96c.29-.48,4.01-.27,4.75-.28Z"/>
            <path class="st5" d="M51.45,90.64c-.39,0-.76-.15-1.03-.43-.28-.28-.44-.67-.43-1.07l.25-8.96c0-.25.08-.5.21-.71.58-.97,1.72-1.09,5.34-1,.29,0,.52.01.65.01h0c.1,0,.26,0,.47-.01,4.21-.11,5.23.07,5.78,1.02.13.22.19.48.19.73l-.04,8.67c0,.79-.63,1.43-1.42,1.45l-9.93.29s-.03,0-.04,0ZM53.13,81.38l-.18,6.29,6.97-.21.03-6.09c-.57-.03-1.49-.03-2.97,0-.23,0-.4.01-.52.01h0c-.15,0-.42,0-.75-.01-.5-.01-1.74-.04-2.58,0ZM56.45,79.94h0,0Z"/>
          </g>
          <g>
            <path class="st4" d="M71.71,79.94c.88-.08,7.2-.25,7.46,0l.22,8.85-9.98.39.05-8.93c.28-.49,1.71-.27,2.26-.32Z"/>
            <path class="st5" d="M69.4,90.65c-.38,0-.74-.15-1.01-.41-.29-.28-.45-.66-.45-1.06l.05-8.93c0-.26.07-.51.2-.73.64-1.11,2.05-1.07,2.98-1.04.15,0,.35.01.41,0,.54-.05,2.48-.11,4.07-.13,3.77-.04,4.07.08,4.54.55.27.27.43.63.44,1.01l.22,8.85c.02.8-.61,1.46-1.4,1.49l-9.98.39s-.04,0-.06,0ZM70.9,81.4l-.03,6.27,7.02-.27-.15-6.12c-1.77-.03-5.12.05-5.9.12h0c-.23.02-.49.01-.76,0-.05,0-.11,0-.18,0ZM71.71,79.94h0,0Z"/>
          </g>
          <g>
            <path class="st4" d="M74,46.49c.77-.04,4.97-.33,5.24.12v8.66l-9.83.64.05-9.01c.28-.5,3.81-.37,4.55-.41Z"/>
            <path class="st5" d="M69.4,57.37c-.37,0-.73-.14-1-.4-.29-.28-.46-.66-.46-1.07l.05-9.01c0-.25.07-.5.19-.72.58-1.02,1.91-1.13,5.01-1.14.31,0,.6,0,.73,0h.26c4.88-.3,5.77-.08,6.31.83.14.23.21.48.21.75v8.66c0,.77-.6,1.41-1.37,1.46l-9.83.64s-.06,0-.09,0ZM70.9,48.02l-.03,6.33,6.91-.45v-6.08c-.62-.01-1.67,0-3.43.11l-.27.02h0c-.19.01-.48.01-.87.01-.49,0-1.55,0-2.3.06ZM74,46.49h0,0Z"/>
          </g>
          <g>
            <path class="st4" d="M73.31,63.1c.85-.05,5.66-.3,5.93.14v8.82l-9.83.2.05-8.8c.28-.5,3.19-.33,3.86-.37Z"/>
            <path class="st5" d="M69.4,73.73c-.38,0-.75-.15-1.02-.42-.28-.28-.44-.65-.44-1.05l.05-8.8c0-.25.07-.5.19-.71.61-1.08,2.07-1.12,4.4-1.1.27,0,.55,0,.65,0,.54-.03,1.93-.1,3.25-.12,2.56-.03,3.5.11,4.01.96.14.23.21.49.21.75v8.82c0,.79-.64,1.44-1.43,1.46l-9.83.2s-.02,0-.03,0ZM70.9,64.58l-.03,6.2,6.91-.14v-6.18c-.91-.03-2.43,0-4.39.1h0c-.2.01-.48,0-.84,0-.35,0-1.08,0-1.65.02ZM73.31,63.1h0,0Z"/>
          </g>
          <g>
            <path class="st4" d="M87.83,63.06l9.41.28c.29.31.09,8.08-.07,8.47-.41.99-8.53.2-9.88.46h0l.54-9.2Z"/>
            <path class="st5" d="M93.8,73.79c-.91,0-1.98-.03-3.25-.06-1.17-.04-2.64-.08-2.98-.02-.44.08-.9-.04-1.23-.34-.34-.3-.52-.73-.49-1.18l.54-9.2c.05-.79.7-1.4,1.5-1.37l9.41.28c.39.01.76.18,1.03.46.41.44.6.64.53,5.22-.07,4.21-.23,4.6-.32,4.8-.47,1.12-1.67,1.42-4.73,1.42ZM88.85,70.76c.49,0,1.08.02,1.79.05,1.47.04,4,.12,5.18-.01.08-1.43.14-4.41.1-6.03l-6.71-.2-.36,6.19ZM95.86,63.76h0Z"/>
          </g>
          <g>
            <path class="st4" d="M87.75,79.94l9.4.19c.29.3.35,8.04.2,8.43-.38.99-8.5.36-9.83.64l.23-9.26Z"/>
            <path class="st5" d="M87.52,90.66c-.34,0-.67-.12-.93-.34-.34-.29-.53-.71-.52-1.16l.23-9.26c.02-.8.68-1.45,1.49-1.42l9.4.19c.38,0,.75.17,1.01.44.42.43.61.63.68,5.18.06,4.19-.08,4.57-.16,4.79-.56,1.47-2.4,1.57-7.93,1.51-1.17-.01-2.62-.03-2.97.03-.1.02-.2.03-.3.03ZM89.19,87.67c.46,0,.99,0,1.62.01,1.46.02,3.96.05,5.14-.11.04-1.43,0-4.41-.09-6l-6.7-.14-.15,6.24c.06,0,.11,0,.17,0Z"/>
          </g>
        </g>
        <g>
          <path class="st2" d="M127.98,68.83c34.38-1.81,39.76,49.47,4.52,53.22-31.1,3.31-41.36-39.53-14.36-50.69l.08-.14c3.18-.55,6.67-2.22,9.76-2.38Z"/>
          <g>
            <path class="st4" d="M141.26,82.88c3.51-.9,6.4,3.12,4.4,6.15s-15.26,15.81-18.55,18.64c-1.61,1.39-3.09,2.97-5.39,1.48-1.35-.87-8.91-8.04-9.84-9.34-2.44-3.42,1.47-7.7,4.9-6.06,1.84.88,5.13,5.22,6.51,5.39.08.01.16.11.22.22,1.83-.07,14.12-15.56,17.74-16.48Z"/>
            <path class="st5" d="M123.5,111.22c-.78,0-1.64-.24-2.57-.84-1.55-1.01-9.2-8.27-10.23-9.72-1.48-2.08-1.36-4.71.3-6.69,1.65-1.96,4.23-2.58,6.41-1.53,1.09.52,2.31,1.73,3.6,3.02.82.82,2.05,2.04,2.53,2.25,0,0,0,0,0,0,1.15-.9,3.74-3.66,5.86-5.94,5.47-5.85,9.23-9.72,11.48-10.3h0c2.2-.56,4.48.3,5.83,2.18,1.34,1.88,1.4,4.31.16,6.19-2.15,3.27-15.54,16.12-18.81,18.94-.12.1-.24.21-.36.31-1.03.9-2.43,2.13-4.21,2.13ZM115.21,94.85c-.82,0-1.53.48-1.97,1-.3.36-1.21,1.65-.16,3.12.81,1.13,8.22,8.17,9.44,8.96,1.08.7,1.62.41,3.26-1.03.13-.11.25-.22.38-.33,3.49-3,16.43-15.53,18.28-18.34.69-1.05.41-2.18-.1-2.89-.51-.71-1.49-1.36-2.73-1.05h0c-1.6.41-6.9,6.08-10.07,9.46-5.31,5.68-6.69,7.01-7.97,7.06-.39.01-.76-.13-1.04-.38-.98-.37-2.02-1.37-3.58-2.92-.96-.96-2.16-2.15-2.8-2.46-.32-.15-.64-.22-.94-.22ZM123.16,97.97h0ZM123.47,97.69s0,0,0,0c0,0,0,0,0,0ZM141.26,82.88h0,0Z"/>
          </g>
        </g>
      </g>
      <g>
        <path class="st5" d="M92.61,15.97c-2.64,0-5.28-.03-7.86-.06-4.8-.06-9.77-.11-14.62.03-.92.03-1.71-.7-1.73-1.63-.03-.93.7-1.71,1.63-1.73,4.92-.15,9.92-.09,14.76-.03,3.93.05,8,.09,11.98.03.93,0,1.7.73,1.71,1.66.01.93-.73,1.7-1.66,1.71-1.4.02-2.81.03-4.22.03Z"/>
        <path class="st5" d="M39.99,38.4c-.93,0-1.68-.75-1.68-1.68,0-.93.75-1.69,1.68-1.69,5.6,0,11.2-.02,16.79-.03,22.98-.05,46.75-.1,70.12.03.93,0,1.68.76,1.67,1.69,0,.93-.76,1.67-1.68,1.67h-.01c-23.36-.14-47.12-.08-70.1-.03-5.6.01-11.2.02-16.8.03h0Z"/>
        <path class="st5" d="M129.1,123.92c-15,0-24.43-10.5-27.26-21.61-1.61-6.35-1.16-12.96,1.28-18.63,1.74-4.03,4.39-7.45,7.83-10.11-1.38.09-2.75.14-4.1.2l-1.01.04c-.46.02-.9-.14-1.23-.45-.33-.31-.52-.74-.53-1.2l-.17-9.01c0-.46.17-.9.49-1.22.32-.32.77-.51,1.22-.49l9.59.16c.45,0,.87.19,1.18.51.57.6.7.94.72,7.17,0,.13,0,.25,0,.36.29-.02.57-.04.82-.09,1.25-.22,2.57-.63,3.96-1.06,1.97-.61,4.01-1.24,6-1.35,8.56-.45,16.03,2.2,21.6,7.66,4.95,4.86,8,11.55,8.58,18.86.57,7.17-1.33,14.07-5.36,19.42-4.55,6.05-11.47,9.72-20.03,10.63-1.23.13-2.42.19-3.58.19ZM119.41,72.69c-.09.04-.19.08-.3.11-.11.03-.22.07-.33.11-13.09,5.41-16.3,18.24-13.68,28.56,1.46,5.76,4.72,10.8,9.16,14.21,4.96,3.8,11.2,5.43,18.06,4.7,7.6-.81,13.72-4.03,17.69-9.31,3.53-4.69,5.2-10.78,4.69-17.13-.52-6.5-3.21-12.44-7.58-16.72-4.88-4.79-11.47-7.11-19.06-6.71-1.56.08-3.32.63-5.17,1.2-1.14.35-2.31.72-3.48.98ZM107.31,64.83l.1,5.54c2.1-.09,4.25-.2,6.33-.42,0-.17,0-.4,0-.67,0-.86-.01-2.98-.07-4.36l-6.37-.1Z"/>
        <path class="st0" d="M128.01,68.79c-.72,0-1.3-.58-1.31-1.3-.03-4.89.04-9.86.11-14.66.08-5.27.16-10.73.1-16.08-.02-1.96-.02-3.77-.02-5.37,0-8.03,0-12.06-2.18-13.88-2.26-1.9-7.59-2.06-17.6-2.18-.72,0-1.3-.6-1.29-1.32,0-.72.61-1.29,1.32-1.29,11.21.14,16.29.31,19.25,2.79,3.1,2.6,3.1,7.04,3.11,15.88,0,1.59,0,3.4.02,5.35.06,5.39-.02,10.86-.1,16.15-.07,4.79-.14,9.74-.11,14.61,0,.72-.58,1.31-1.3,1.32h0Z"/>
        <path class="st0" d="M48.07,100.9s-.06,0-.09,0c-4.24-.3-7.32-1.31-9.58-5.39-.09-.16-.15-.35-.16-.53-1.39-18.24-1.16-37.18-.94-55.49l.03-2.77c.02-1.98.03-3.81.03-5.43.02-8.29.02-12.86,2.71-15.51,2.91-2.86,8.2-2.92,19.91-2.77.72,0,1.3.6,1.29,1.32,0,.72-.59,1.29-1.31,1.29,0,0-.01,0-.02,0-10.38-.13-15.89-.1-18.04,2.02-1.91,1.88-1.92,6.06-1.93,13.65,0,1.63,0,3.47-.03,5.46l-.03,2.78c-.22,18.16-.45,36.93.91,54.97,1.68,2.87,3.8,3.55,7.3,3.8l53.17-.26h0c.72,0,1.3.58,1.31,1.3,0,.72-.58,1.31-1.3,1.31l-53.22.26h0Z"/>
      </g>
    </g>
    <g>
      <path class="st0" d="M18.78,123.1c0,1.28-.38,2.34-1.13,3.16-.75.82-1.8,1.25-3.14,1.29-.34,0-.7-.06-1.09-.18-.71-.23-1.08-.34-1.11-.34-.37-.09-.74-.18-1.12-.27-.38-.1-.7-.29-.98-.58-.42-.42-.75-1.09-1.02-2.03-.32-1.09-.57-1.78-.74-2.05-.12-.14-.27-.38-.44-.73-.05-.26,0-.52.13-.77.13-.25.29-.41.47-.48.09-.03.26-.05.51-.05.54,0,1.2.07,1.97.22.78.15,1.21.28,1.3.4.09.12.22.75.37,1.87.14,1.04.35,1.62.62,1.74.06.03.13.05.21.05.29,0,.54-.27.75-.82.21-.55.31-1.17.31-1.86,0-1.51-.42-2.51-1.25-3.02-1.91-1.16-3.25-2.24-4.02-3.22-.89-1.14-1.29-2.5-1.2-4.06.08-1.3.5-2.61,1.26-3.94.76-1.33,1.57-2.1,2.41-2.33.35-.09,1.43.29,3.23,1.14.45.19.9.39,1.35.6s.82.51,1.1.91c.43.61.65,1.66.65,3.15,0,.28,0,.69-.02,1.22-.02.47-.02.8-.02.99.02.12.07.32.16.6.08.19.11.38.09.57-.03.76-.32,1.19-.85,1.27-.31.05-.88-.08-1.71-.39-.92-.33-1.51-.68-1.76-1.07-.03-.05-.05-.22-.05-.52,0-.26.03-.85.08-1.77.05-.92.08-1.59.08-2,0-.75-.08-1.11-.23-1.09-.48.04-.87.42-1.19,1.16s-.47,1.57-.47,2.51c0,1.56.41,2.67,1.22,3.33l2.77,1.98c.88.64,1.49,1.28,1.82,1.92.43.83.65,1.99.65,3.48Z"/>
      <path class="st0" d="M30.58,121.75c0,.33-.25.77-.76,1.33-.42,1.02-.79,1.76-1.11,2.21-.71,1.04-1.58,1.66-2.61,1.85-.22.03-.42.05-.62.05-.86,0-1.92-.47-3.19-1.4-1.09-.83-1.64-2.75-1.64-5.75,0-2.22.3-4.23.9-6.03.66-1.96,1.47-2.97,2.42-3.04.75-.05,1.68.17,2.77.68,1.09.5,1.83,1.06,2.22,1.66.32.5.48,1.17.48,2,0,.23-.02.55-.05.98-.03.42-.04.72-.02.9.03.47.05.68.05.65,0,.55-.24.82-.72.81-.55-.02-1.08-.11-1.57-.29-.66-.26-1.06-.62-1.2-1.07-.05-.16.02-.36.2-.62.18-.26.25-.48.22-.65.03-.12.05-.42.05-.91,0-1.04-.16-1.58-.48-1.61-.49-.03-.91.81-1.25,2.52-.31,1.53-.46,3.19-.46,4.99,0,2.13.22,3.26.67,3.38.35.09.82-.35,1.39-1.3.48-.81.74-1.36.77-1.65.04-.29.07-.58.1-.87.11-.48.38-.71.83-.68.28.03.76.23,1.46.6.69.36,1.06.64,1.1.82.04.18.06.33.06.45Z"/>
      <path class="st0" d="M42.84,126.25c-.08.5-.25.82-.51.96-.11.05-.3.08-.58.08-.52,0-1.15-.09-1.87-.27-.72-.18-1.16-.36-1.32-.53-.06-.09-.09-.19-.09-.31,0-.14.07-.4.21-.78.09-.14.19-.29.3-.46.11-.16.16-.38.16-.64.03-6.83-.02-10.27-.14-10.32-.23-.09-.76.55-1.59,1.9-.89,1.44-1.34,2.59-1.34,3.46v5.77c.25.28.33.64.25,1.09-.09.54-.34.9-.74,1.09-.06.03-.15.05-.28.05-.42,0-1.02-.11-1.82-.33-.8-.22-1.24-.38-1.32-.48-.17-.28-.18-.6-.05-.96.02-.05.09-.14.22-.27.13-.13.2-.26.2-.38v-18.38c0-.14-.06-.32-.19-.55-.12-.23-.16-.42-.12-.57.09-.36.33-.6.72-.7.25-.07.82.03,1.73.29.99.28,1.52.56,1.62.86.06.19.04.48-.07.86-.11.38-.16.85-.16,1.4v4.86c.86-1.23,1.69-1.85,2.49-1.85.52,0,1.2.2,2.03.61s1.31.78,1.43,1.1c.43,1.11.65,5.21.65,12.3.15.42.21.78.16,1.09Z"/>
      <path class="st0" d="M54.14,122.27c.14.26-.16,1.03-.9,2.31-.8,1.37-1.59,2.3-2.36,2.78-.09.05-.23.08-.42.08-.6,0-1.39-.21-2.36-.62-1.03-.42-1.71-.87-2.03-1.35-.89-1.3-1.34-3.1-1.34-5.41,0-2.18.39-4.11,1.18-5.77.85-1.82,1.92-2.75,3.23-2.78.48-.02,1.05.12,1.73.42.83.36,1.52.86,2.06,1.48.14.16.27.62.39,1.4.15.83.23,1.65.23,2.44,0,1.18-.17,1.99-.51,2.44-1.59.57-3.2.89-4.85.96-.03.85.06,1.74.28,2.68.22.94.44,1.41.67,1.43.31.02.68-.27,1.11-.86.38-.5.62-.93.72-1.27.11-.52.25-1.06.44-1.61.25-.03.73.1,1.46.42.72.31,1.15.59,1.27.83ZM50.02,114.31c-.26-.03-.63.43-1.1,1.4-.47.97-.74,1.9-.82,2.78.69-.03,1.25-.23,1.66-.57.25-.21.37-1.07.37-2.6,0-.64-.04-.98-.12-1.01Z"/>
      <path class="st0" d="M66.79,106.83c.03.17-.03.51-.17,1.01-.15.5-.22.79-.22.86v16.95c0,.57.04.93.12,1.07.23.45.3.75.21.91-.08.14-.28.21-.6.21-.35,0-.89-.08-1.62-.23-.82-.19-1.25-.29-1.29-.29-.28-.03-.48-.24-.6-.62-.02-.03-.02-.15-.02-.34,0-.71.08-1.77.25-3.17-.37.83-.73,1.66-1.09,2.5-.51,1.02-.96,1.49-1.36,1.4-3.03-.69-4.55-2.79-4.55-6.29,0-1.99.48-4.02,1.46-6.08.94-1.99,1.97-3.29,3.09-3.9.15-.09.3-.13.44-.13.38,0,1.05.54,2.01,1.61v-5.04c-.02-.14-.08-.39-.21-.74-.12-.35-.18-.62-.18-.79,0-.36.22-.55.65-.55.38,0,.94.12,1.66.36.46.17.92.34,1.36.49.38.12.61.39.67.81ZM62.77,113.54c-.86.43-1.64,1.39-2.34,2.86-.7,1.47-1.05,2.84-1.05,4.11,0,1.47.51,2.28,1.52,2.42.54.07,1.16-3.06,1.87-9.39Z"/>
      <path class="st0" d="M79.26,111.98c.11.17.16.35.16.52s-.09.38-.27.62c-.18.24-.27.4-.27.47v12.09c0,.1.05.29.15.55.1.26.15.45.15.57,0,.31-.24.54-.72.68-.25.07-.82-.03-1.73-.29-.99-.28-1.52-.55-1.62-.83-.08-.23-.05-.53.07-.91.15-.45.23-.76.23-.94s-.02-.4-.07-.68c-.23.87-.55,1.64-.97,2.31-.51.8-1.02,1.2-1.52,1.2s-1.2-.2-2.03-.6c-.83-.4-1.31-.76-1.43-1.09-.43-1.11-.65-5.21-.65-12.3-.12-.33-.18-.66-.18-.99,0-.54.18-.9.53-1.09.11-.05.3-.08.58-.08.52,0,1.15.09,1.87.27.72.18,1.16.37,1.32.56.08.1.12.22.12.34,0,.19-.12.5-.35.92-.23.42-.35.73-.35.92-.03,6.83.02,10.27.14,10.32.22.09.76-.71,1.63-2.41.87-1.69,1.31-2.98,1.31-3.86v-4.86c-.2-.23-.3-.5-.3-.83,0-.68.26-1.14.79-1.38.06-.03.15-.05.28-.05.42,0,1.02.11,1.82.33.8.22,1.24.39,1.32.51Z"/>
      <path class="st0" d="M85.7,106.59c0,.12-.03.29-.1.49-.07.21-.11.34-.13.39-.09.35-.18.88-.28,1.61v15.96c0,.21.05.39.14.56.09.16.14.3.14.4,0,1.11-.18,1.71-.55,1.79-.14.03-.63-.08-1.47-.35-.84-.27-1.34-.48-1.51-.64-.34-.33-.51-.63-.51-.91,0-.07.03-.15.09-.23.06-.09.09-.23.09-.44v-18.33c0-.1-.03-.21-.08-.33-.05-.11-.08-.22-.08-.32.03-.42.32-.69.85-.83.15-.03.48-.03.97,0,.57.05,1.06.15,1.48.29.63.21.95.5.95.88Z"/>
      <path class="st0" d="M96.67,122.27c.14.26-.16,1.03-.9,2.31-.8,1.37-1.59,2.3-2.36,2.78-.09.05-.23.08-.42.08-.6,0-1.39-.21-2.36-.62-1.03-.42-1.71-.87-2.03-1.35-.89-1.3-1.34-3.1-1.34-5.41,0-2.18.39-4.11,1.18-5.77.85-1.82,1.92-2.75,3.23-2.78.48-.02,1.05.12,1.73.42.83.36,1.52.86,2.06,1.48.14.16.27.62.39,1.4.15.83.23,1.65.23,2.44,0,1.18-.17,1.99-.51,2.44-1.59.57-3.2.89-4.85.96-.03.85.06,1.74.28,2.68.22.94.44,1.41.67,1.43.31.02.68-.27,1.11-.86.38-.5.62-.93.72-1.27.11-.52.25-1.06.44-1.61.25-.03.73.1,1.46.42.72.31,1.15.59,1.27.83ZM92.56,114.31c-.26-.03-.63.43-1.1,1.4-.47.97-.74,1.9-.82,2.78.69-.03,1.25-.23,1.66-.57.25-.21.37-1.07.37-2.6,0-.64-.04-.98-.12-1.01Z"/>
      <path class="st0" d="M18.8,157.45c-.02.24-.11.45-.28.62s-.36.24-.58.21c-1.91-.29-2.97-.7-3.19-1.22-.03-.07-.05-.14-.05-.21,0-.09.03-.18.1-.29s.11-.2.13-.27c.02-.08.05-.15.09-.22.03-.14.04-.44.02-.91-.19.16-.46.57-.83,1.25-.38.75-.72,1.27-1.02,1.56-.49.52-1.05.78-1.69.78-.37,0-.73-.17-1.09-.49-.17-.16-.47-.49-.9-1.01-.74-.94-1.14-1.45-1.2-1.53-.32-.49-.48-.94-.48-1.38,0-.14.02-.28.05-.42.29-1.53,1.2-2.97,2.73-4.34,1.11-.99,2.68-2.04,4.71-3.15,0-.55-.12-.91-.37-1.07-.15-.1-.69.09-1.62.58s-1.57.91-1.94,1.26c-.12.14-.32.33-.6.57-.26.17-.5.23-.72.16-.17-.05-.53-.36-1.09-.94-.55-.57-.85-.95-.9-1.14-.12-.47,0-.83.39-1.09.02-.02.32-.12.92-.31.57-.35,1.14-.69,1.71-1.04,1.2-.64,2.22-.99,3.05-1.04.35-.02.75.19,1.2.62.4.4.8.79,1.21,1.18.41.39.83.77,1.26,1.13.49.49.74.95.74,1.4v9.83c.15.45.22.75.21.91ZM15.11,149.86c-.75.33-1.4.83-1.94,1.51-.4.56-.8,1.1-1.2,1.64-.32.36-.63.84-.91,1.42-.29.58-.43,1.01-.43,1.29,0,.14.05.21.14.21.32,0,1.05-.78,2.17-2.35,1.12-1.57,1.85-2.8,2.17-3.71Z"/>
      <path class="st0" d="M31.55,156.36c.12.33.18.66.18.99,0,.52-.18.88-.53,1.07-.11.05-.3.08-.58.08-.52,0-1.15-.09-1.87-.27-.72-.18-1.16-.36-1.32-.53-.08-.1-.12-.22-.12-.34,0-.19.12-.5.35-.92.23-.42.35-.73.35-.92.03-6.83-.02-10.27-.14-10.32-.22-.09-.75.69-1.59,2.34-.89,1.73-1.34,3.04-1.34,3.93v4.86c.2.23.3.5.3.83,0,.66-.26,1.11-.79,1.35-.06.03-.15.05-.28.05-.42,0-1.02-.11-1.82-.33-.8-.22-1.25-.39-1.34-.53s-.14-.29-.14-.47.09-.38.27-.62c.18-.24.27-.4.27-.47v-12.09c0-.14-.06-.32-.19-.55-.12-.23-.16-.42-.12-.57.09-.36.33-.6.72-.7.25-.07.82.03,1.73.29.99.28,1.52.56,1.62.86.06.19.04.48-.07.86-.17.61-.25.95-.25,1.04,0,.19.03.4.09.62.23-.87.55-1.64.97-2.31.51-.81,1.02-1.22,1.52-1.22s1.2.2,2.03.61,1.31.78,1.43,1.1c.43,1.11.65,5.21.65,12.3Z"/>
      <path class="st0" d="M52.91,156.77c-.02.16-.05.53-.09,1.12-.02.31-.08.55-.18.7-.08.05-.21.08-.39.08-.51,0-1.14-.15-1.89-.44-.82-.28-1.37-.61-1.66-.99-.12-.16-.25-.68-.37-1.56-.17-1.16-.36-2.12-.58-2.89-.59.09-1.44.32-2.56.71s-1.86.72-2.19.98c-.23.75-.54,1.66-.92,2.76-.05.24-.1.47-.15.69-.05.22-.19.39-.4.53-.05.03-.12.05-.21.05-.37,0-.99-.22-1.86-.65s-1.32-.72-1.35-.86c-.06-.24.08-.84.44-1.79.49-1.39.78-2.24.85-2.55-.32-.36-.48-.73-.48-1.09,0-.09,0-.18.02-.29.03-.21.5-.58,1.41-1.12l2.98-11.47c.05-.21.05-.59.02-1.14-.03-.47.02-.76.14-.88.08-.09.26-.13.55-.13.72,0,1.76.21,3.09.62s2.14.79,2.4,1.12c.09,1.92.44,4.81,1.04,8.66.77,4.75,1.56,8.03,2.36,9.83ZM46.89,148.87c-.2-1.09-.32-1.81-.37-2.16-.17-1.16-.28-2.37-.35-3.61-.31.85-.67,2.03-1.09,3.54-.45,1.58-.69,2.57-.72,2.96.29-.14,1.13-.38,2.52-.73Z"/>
      <path class="st0" d="M60.46,158.36c-.15.09-.3.13-.44.13-.4,0-1.07-.53-2.01-1.59v5.02c.02.14.08.39.21.74.12.35.19.62.19.79,0,.36-.22.55-.65.55-.38,0-.95-.12-1.69-.36-.45-.16-.89-.32-1.34-.49-.39-.12-.61-.39-.67-.81-.03-.17.03-.51.17-1.01.15-.5.22-.79.22-.86v-16.93c0-.57-.04-.94-.12-1.09-.23-.43-.3-.74-.21-.91.06-.14.26-.21.6-.21s.88.08,1.59.23c.82.19,1.25.29,1.32.29.26.04.46.24.6.62.02.05.02.17.02.36,0,.71-.09,1.77-.28,3.17.37-.83.74-1.65,1.11-2.47.49-1.06.95-1.54,1.36-1.46,3.02.71,4.53,2.83,4.53,6.34,0,1.99-.47,4-1.42,6.02-.95,2.02-1.98,3.32-3.11,3.91ZM59.96,146.27c-.55-.07-1.18,3.06-1.87,9.39.86-.43,1.64-1.39,2.34-2.86.7-1.47,1.05-2.84,1.05-4.11,0-1.47-.51-2.28-1.52-2.42Z"/>
      <path class="st0" d="M72.7,158.36c-.15.09-.3.13-.44.13-.4,0-1.07-.53-2.01-1.59v5.02c.02.14.08.39.21.74.12.35.19.62.19.79,0,.36-.22.55-.65.55-.38,0-.95-.12-1.69-.36-.45-.16-.89-.32-1.34-.49-.39-.12-.61-.39-.67-.81-.03-.17.03-.51.17-1.01.15-.5.22-.79.22-.86v-16.93c0-.57-.04-.94-.12-1.09-.23-.43-.3-.74-.21-.91.06-.14.26-.21.6-.21s.88.08,1.59.23c.82.19,1.25.29,1.32.29.26.04.46.24.6.62.02.05.02.17.02.36,0,.71-.09,1.77-.28,3.17.37-.83.74-1.65,1.11-2.47.49-1.06.95-1.54,1.36-1.46,3.02.71,4.53,2.83,4.53,6.34,0,1.99-.47,4-1.42,6.02-.95,2.02-1.98,3.32-3.11,3.91ZM72.2,146.27c-.55-.07-1.18,3.06-1.87,9.39.86-.43,1.64-1.39,2.34-2.86.7-1.47,1.05-2.84,1.05-4.11,0-1.47-.51-2.28-1.52-2.42Z"/>
      <path class="st0" d="M86.91,143.12c.85.45,1.5,1.36,1.96,2.73.42,1.25.62,2.72.62,4.42,0,2.34-.35,4.37-1.06,6.08-.79,1.84-1.76,2.67-2.93,2.5-.43-.12-1.08-.27-1.94-.44-.63-.09-1.2-.22-1.71-.39-.88-.26-1.58-1.1-2.1-2.52-.48-1.32-.72-2.86-.72-4.63s.25-3.41.74-4.86c.55-1.59,1.33-2.71,2.33-3.35.17-.1.4-.16.69-.16.31,0,.92.11,1.82.34.58,0,1.35.1,2.29.29ZM84.32,145.46c-.42,0-.8.57-1.15,1.7-.35,1.14-.53,2.22-.53,3.26,0,1.25.13,2.48.39,3.69.29,1.32.63,2.03,1.02,2.13.49.12.93-.5,1.32-1.87.37-1.32.55-2.77.55-4.37,0-.88-.1-1.76-.3-2.63-.28-1.28-.71-1.92-1.29-1.92Z"/>
      <path class="st0" d="M95.73,157.5c.06.62-.13,1.01-.58,1.17-.08.02-.18.03-.32.03-.55,0-1.24-.13-2.06-.39-.88-.28-1.39-.57-1.55-.88-.08-.14,0-.41.21-.81.14-.26.21-.74.21-1.43v-10.92c-.18-.66-.28-1.1-.28-1.33s.28-.34.85-.34c.46,0,1.1.16,1.93.48.82.32,1.32.6,1.49.84.05.07.07.16.07.26,0,.14-.09.4-.27.78-.18.38-.27.67-.27.86v10.45c0,.17.09.39.27.65.18.26.27.45.29.57ZM95.8,139.54s.02.1.02.21c0,.38-.07.88-.21,1.48-.15.66-.3,1.02-.44,1.09-.15.07-.82-.12-1.99-.56-1.17-.44-1.79-.76-1.87-.95-.05-.09-.07-.22-.07-.39,0-.47.11-.96.32-1.48.25-.59.52-.92.83-.99.35-.07.97.08,1.85.46.88.37,1.39.75,1.55,1.13Z"/>
      <path class="st0" d="M108.48,156.36c.12.33.18.66.18.99,0,.52-.18.88-.53,1.07-.11.05-.3.08-.58.08-.52,0-1.15-.09-1.87-.27-.72-.18-1.16-.36-1.32-.53-.08-.1-.12-.22-.12-.34,0-.19.12-.5.35-.92.23-.42.35-.73.35-.92.03-6.83-.02-10.27-.14-10.32-.22-.09-.75.69-1.59,2.34-.89,1.73-1.34,3.04-1.34,3.93v4.86c.2.23.3.5.3.83,0,.66-.26,1.11-.79,1.35-.06.03-.15.05-.28.05-.42,0-1.02-.11-1.82-.33-.8-.22-1.25-.39-1.34-.53s-.14-.29-.14-.47.09-.38.27-.62c.18-.24.27-.4.27-.47v-12.09c0-.14-.06-.32-.19-.55-.12-.23-.16-.42-.12-.57.09-.36.33-.6.72-.7.25-.07.82.03,1.73.29.99.28,1.52.56,1.62.86.06.19.04.48-.07.86-.17.61-.25.95-.25,1.04,0,.19.03.4.09.62.23-.87.55-1.64.97-2.31.51-.81,1.02-1.22,1.52-1.22s1.2.2,2.03.61,1.31.78,1.43,1.1c.43,1.11.65,5.21.65,12.3Z"/>
      <path class="st0" d="M117.99,145.28c-.02.31-.11.59-.28.83-.17.24-.35.36-.55.36-.06,0-.12,0-.16-.03-.22-.09-.7-.13-1.46-.13v10.27s.05.12.15.42c.1.29.15.56.15.78,0,.5-.31.77-.92.81-.32.02-.92-.14-1.78-.47-.94-.35-1.44-.67-1.5-.96-.03-.12.02-.38.16-.77.14-.39.21-.69.21-.9v-9.2h-.79c-.29,0-.65-.29-1.09-.87-.43-.58-.65-1.04-.65-1.39,0-.26.09-.49.27-.7.18-.21.37-.31.59-.31h1.66v-2.34c-.23-.35-.35-.72-.35-1.12,0-.36.14-.59.42-.68.14-.03.33-.05.58-.05.57,0,1.24.1,2,.3.76.2,1.26.4,1.49.61.11.1.16.23.16.36,0,.17-.12.43-.37.78-.25.35-.38.59-.39.73v1.4h.74c.15,0,.48.31.97.94s.74,1.07.74,1.33Z"/>
      <path class="st0" d="M136.56,156.36c.12.33.18.66.18.99,0,.52-.18.88-.53,1.07-.11.05-.3.08-.58.08-.52,0-1.15-.09-1.87-.27s-1.16-.36-1.32-.53c-.08-.1-.12-.22-.12-.34,0-.19.12-.5.35-.92.23-.42.35-.73.35-.92.03-6.83-.02-10.27-.14-10.32-.25-.09-.75.6-1.5,2.05-.83,1.59-1.25,2.98-1.25,4.16v5.1c.11.4.16.71.16.94,0,.43-.2.76-.6.99-.11.05-.3.08-.58.08-.52,0-1.15-.09-1.87-.27-.72-.18-1.16-.36-1.32-.53-.06-.07-.09-.16-.09-.26,0-.17.11-.48.33-.94.22-.45.33-.78.33-.99.03-6.83-.02-10.27-.14-10.32-.22-.09-.75.69-1.59,2.34-.89,1.73-1.34,3.04-1.34,3.93v4.86c.2.23.3.5.3.83,0,.66-.26,1.11-.79,1.35-.06.03-.15.05-.28.05-.42,0-1.02-.11-1.82-.33-.8-.22-1.25-.39-1.34-.53s-.14-.29-.14-.47.09-.38.27-.62c.18-.24.27-.4.27-.47v-12.09c0-.14-.06-.32-.19-.55-.12-.23-.16-.42-.12-.57.09-.36.33-.6.72-.7.25-.07.82.03,1.73.29.99.28,1.52.56,1.62.86.06.19.04.48-.07.86-.17.61-.25.95-.25,1.04,0,.19.03.4.09.62.23-.87.55-1.64.97-2.31.51-.81,1.02-1.22,1.52-1.22s1.16.22,2.01.65c.79.42,1.27.77,1.45,1.07.14.21.29.83.46,1.87.63-1.32.99-2.07,1.09-2.26.52-.88,1.02-1.33,1.5-1.33.52,0,1.2.2,2.03.61.83.41,1.31.78,1.43,1.1.43,1.11.65,5.21.65,12.3Z"/>
      <path class="st0" d="M148.01,153.47c.14.26-.16,1.03-.9,2.31-.8,1.37-1.59,2.3-2.36,2.78-.09.05-.23.08-.42.08-.6,0-1.39-.21-2.36-.62-1.03-.42-1.71-.87-2.03-1.35-.89-1.3-1.34-3.1-1.34-5.41,0-2.18.39-4.11,1.18-5.77.85-1.82,1.92-2.75,3.23-2.78.48-.02,1.05.12,1.73.42.83.36,1.52.86,2.06,1.48.14.16.27.62.39,1.4.15.83.23,1.65.23,2.44,0,1.18-.17,1.99-.51,2.44-1.59.57-3.2.89-4.85.96-.03.85.06,1.74.28,2.68.22.94.44,1.41.67,1.43.31.02.68-.27,1.11-.86.38-.5.62-.93.72-1.27.11-.52.25-1.06.44-1.61.25-.03.73.1,1.46.42.72.31,1.15.59,1.27.83ZM143.9,145.52c-.26-.03-.63.43-1.1,1.4-.47.97-.74,1.9-.82,2.78.69-.03,1.25-.23,1.66-.57.25-.21.37-1.07.37-2.6,0-.64-.04-.98-.12-1.01Z"/>
      <path class="st0" d="M160.23,156.36c.12.33.18.66.18.99,0,.52-.18.88-.53,1.07-.11.05-.3.08-.58.08-.52,0-1.15-.09-1.87-.27-.72-.18-1.16-.36-1.32-.53-.08-.1-.12-.22-.12-.34,0-.19.12-.5.35-.92.23-.42.35-.73.35-.92.03-6.83-.02-10.27-.14-10.32-.22-.09-.75.69-1.59,2.34-.89,1.73-1.34,3.04-1.34,3.93v4.86c.2.23.3.5.3.83,0,.66-.26,1.11-.79,1.35-.06.03-.15.05-.28.05-.42,0-1.02-.11-1.82-.33-.8-.22-1.25-.39-1.34-.53s-.14-.29-.14-.47.09-.38.27-.62c.18-.24.27-.4.27-.47v-12.09c0-.14-.06-.32-.19-.55-.12-.23-.16-.42-.12-.57.09-.36.33-.6.72-.7.25-.07.82.03,1.73.29.99.28,1.52.56,1.62.86.06.19.04.48-.07.86-.17.61-.25.95-.25,1.04,0,.19.03.4.09.62.23-.87.55-1.64.97-2.31.51-.81,1.02-1.22,1.52-1.22s1.2.2,2.03.61,1.31.78,1.43,1.1c.43,1.11.65,5.21.65,12.3Z"/>
      <path class="st0" d="M169.74,145.28c-.02.31-.11.59-.28.83-.17.24-.35.36-.55.36-.06,0-.12,0-.16-.03-.22-.09-.7-.13-1.46-.13v10.27s.05.12.15.42c.1.29.15.56.15.78,0,.5-.31.77-.92.81-.32.02-.92-.14-1.78-.47-.94-.35-1.44-.67-1.5-.96-.03-.12.02-.38.16-.77.14-.39.21-.69.21-.9v-9.2h-.79c-.29,0-.65-.29-1.09-.87-.43-.58-.65-1.04-.65-1.39,0-.26.09-.49.27-.7.18-.21.37-.31.59-.31h1.66v-2.34c-.23-.35-.35-.72-.35-1.12,0-.36.14-.59.42-.68.14-.03.33-.05.58-.05.57,0,1.24.1,2,.3.76.2,1.26.4,1.49.61.11.1.16.23.16.36,0,.17-.12.43-.37.78-.25.35-.38.59-.39.73v1.4h.74c.15,0,.48.31.97.94s.74,1.07.74,1.33Z"/>
    </g>
  </g>
</svg>