<?xml version="1.0" encoding="UTF-8"?>
<svg xmlns="http://www.w3.org/2000/svg" xmlns:xlink="http://www.w3.org/1999/xlink" version="1.1" viewBox="0 0 175 175">
  <!-- Generator: Adobe Illustrator 30.0.0, SVG Export Plug-In . SVG Version: 2.1.1 Build 123)  -->
  <defs>
    <style>
      .st0 {
        fill: #193e6a;
      }

      .st1 {
        fill: none;
      }

      .st2 {
        fill: #303153;
      }

      .st3 {
        fill: #2e3057;
      }

      .st4 {
        fill: #1c2c5a;
      }

      .st5 {
        fill: #e95658;
      }

      .st6 {
        fill: #e65458;
      }

      .st7 {
        fill: #fdfdfe;
      }

      .st8 {
        fill: #0565a7;
      }

      .st9 {
        fill: #713850;
      }

      .st10 {
        fill: #f45e5a;
      }

      .st11 {
        fill: #df4e56;
      }

      .st12 {
        fill: #1b3f6c;
      }

      .st13 {
        fill: #ec5859;
      }

      .st14 {
        fill: #ede6e6;
      }

      .st15 {
        fill: #de4e56;
      }

      .st16 {
        fill: #0d64a9;
      }

      .st17 {
        fill: #ea5658;
      }

      .st18 {
        fill: #ff1212;
      }

      .st19 {
        fill: #d10d0d;
      }

      .st20 {
        fill: #fc7575;
      }

      .st21 {
        fill: #ef4b4b;
      }

      .st22 {
        fill: #e0b8b8;
      }

      .st23 {
        fill: #cbe8f6;
      }

      .st24 {
        fill: #173e6a;
      }

      .st25 {
        fill: #173f6c;
      }

      .st26 {
        fill: #e93333;
      }

      .st27 {
        fill: #ff3803;
      }

      .st28 {
        fill: #1c3b64;
      }

      .st29 {
        fill: #f86256;
      }

      .st30 {
        fill: #e75558;
      }

      .st31 {
        fill: #e55357;
      }

      .st32 {
        fill: #f96058;
      }

      .st33 {
        fill: #80caff;
      }

      .st34 {
        fill: #d94a55;
      }

      .st35 {
        fill: #ed5959;
      }

      .st36 {
        fill: #1563a2;
      }

      .st37 {
        fill: #5a586c;
      }

      .st38 {
        fill: #fc5656;
      }

      .st39 {
        fill: #ee5959;
      }

      .st40 {
        fill: #92a9b8;
      }

      .st41 {
        fill: #f05b59;
      }

      .st42 {
        clip-path: url(#clippath-1);
      }

      .st43 {
        fill: #d04c4a;
      }

      .st44 {
        fill: #f8615b;
      }

      .st45 {
        fill: #1676af;
      }

      .st46 {
        fill: #f44d4d;
      }

      .st47 {
        fill: #e6e0e4;
      }

      .st48 {
        fill: #d84955;
      }

      .st49 {
        fill: #e0adad;
      }

      .st50 {
        fill: #718292;
      }

      .st51 {
        fill: #fff;
      }

      .st52 {
        fill: #e15057;
      }

      .st53 {
        fill: #dd4d56;
      }

      .st54 {
        fill: #f7615a;
      }

      .st55 {
        fill: #f35d5a;
      }

      .st56 {
        fill: #173d6f;
      }

      .st57 {
        fill: #f07171;
      }

      .st58 {
        fill: #4a8bff;
      }

      .st59 {
        fill: #ffcd5f;
      }

      .st60 {
        fill: #273d63;
      }

      .st61 {
        fill: #7396c2;
      }

      .st62 {
        fill: #f1f1f4;
      }

      .st63 {
        fill: #f55856;
      }

      .st64 {
        fill: #dc4c56;
      }

      .st65 {
        fill: #ef5a59;
      }

      .st66 {
        fill: #0d68a5;
      }

      .st67 {
        opacity: .49;
      }

      .st68 {
        opacity: .47;
      }

      .st69 {
        fill: #2a345e;
      }

      .st70 {
        fill: #d74855;
      }

      .st71 {
        fill: #ff6e6e;
      }

      .st72 {
        fill: #1a3e6b;
      }

      .st73 {
        fill: #1166a7;
      }

      .st74 {
        fill: #e35257;
      }

      .st75 {
        fill: #e25157;
      }

      .st76 {
        fill: #fc5959;
      }

      .st77 {
        fill: #fc4c4c;
      }

      .st78 {
        fill: #94cfed;
      }

      .st79 {
        fill: #f25d5a;
      }

      .st80 {
        fill: #f15c59;
      }

      .st81 {
        fill: #6395c2;
      }

      .st82 {
        fill: #f2e9e9;
      }

      .st83 {
        fill: #0f6bb0;
      }

      .st84 {
        fill: #fa635b;
      }

      .st85 {
        fill: #db4b56;
      }

      .st86 {
        fill: #f55f5a;
      }

      .st87 {
        fill: #1f4a77;
      }

      .st88 {
        fill: #e45257;
      }

      .st89 {
        fill: #0d589d;
      }

      .st90 {
        fill: #da4a56;
      }

      .st91 {
        fill: #fa5e59;
      }

      .st92 {
        fill: #d1d1d3;
      }

      .st93 {
        fill: #feffff;
      }

      .st94 {
        fill: #f9625b;
      }

      .st95 {
        clip-path: url(#clippath);
      }

      .st96 {
        fill: #f6605a;
      }

      .st97 {
        fill: #0965b4;
      }

      .st98 {
        fill: #527ea9;
      }

      .st99 {
        fill: #e04f57;
      }

      .st100 {
        fill: #79a2bb;
      }

      .st101 {
        fill: #eb5758;
      }
    </style>
    <clipPath id="clippath">
      <path class="st1" d="M42.32,43.2c-1.2-.49-2.27-1.06-3.13-2.15-2.1-2.65-1.55-8.81-6.15-7.02,5.43-4.83,5.73,3.27,7.56,6.67.49.91,1.2,1.63,1.73,2.49Z"/>
    </clipPath>
    <clipPath id="clippath-1">
      <path class="st1" d="M61.43,39.14c2.17,1.26,4.05,3.01,6.15,4.41l-4.75,3.36c-1.61.77-3.18,1.91-4.81,2.67-4.01,1.88-8.25,3.23-12.58,4,4.67,3.5,9.38,7.06,13.39,11.42-1.94-.17-3.99-.22-5.94-.12-4.83-9.53-14.34-13.32-22.51-18.56-.94-.6-1.71-1.38-2.54-1.97,1.07-2.72,2.24-6.69,4.59-8.47,3.98-3.01,3.75,2.66,5.13,5.16,1.45,2.64,4.64,4.26,7.4,4.58,6.48.75,11.39-2.94,16.47-6.49Z"/>
    </clipPath>
  </defs>
  <rect class="st51" width="175" height="175"/>
  <g id="Layer_1">
    <g id="Generative_Object">
      <path class="st47" d="M94.26,48.07c0,.28-.19.48-.32.7-.16-.1-.29-.23-.43-.35l-.11-.58c.3.12.61.14.86.23Z"/>
      <g>
        <g>
          <path class="st28" d="M19.54,71.5c.01.13.63,1.17.76,1.39,1.93,3.41,5.8,5.27,9.29,6.15,1.94.49,4.11.81,6.1.93,11.93.7,24.49-.97,36.55-.46,14.99.63,41.98,2.76,53.77-9.16.8-.81,1.25-1.26,1.84-2.32,1.13-2.06,1.31-3.19,1.19-5.62-.04-.79-.57-1.72-.11-2.49.06.05.52-.05.59,0,1.36,1.02,1.76,5.47,1.46,7.13-.78,4.26-7.22,8.04-10.64,9.68-1.06.51-8.01,3.35-8.64,3.13-.52-.19-.06-1.16-1.19-.93-1.32.27-.28,1.15-.97,1.62-.26.18-5.67,1.27-6.15,1.28-1.45,0-.69-1.07-1.19-1.28-.15-.06-2.88.3-2.97.52-.11.3.16,1.03-.38,1.33l-7.45.35c-.59-.2-.25-1.23-.54-1.39-.1-.05-2.06-.05-2.16,0-.28.15-.12,1.22-.54,1.39-.28.11-5.64.01-5.94-.12-.51-.22-.07-1.22-.43-1.39-.07-.04-1.55-.03-1.62,0-.42.2.29,1.31-.97,1.39-.32.02-3.91-.26-4.1-.35-.58-.26.17-1.26-.43-1.51-1.78-.71-1.38,1.26-1.94,1.39-.1.02-1.85-.09-1.94-.12-.84-.25-.12-1.31-.54-1.51-.06-.03-1.34-.03-1.4,0-.3.14,0,1.31-.54,1.51-.12.04-1.9.09-2.27.12-2.79.17-5.63-.18-8.42.12-.68-.22-.39-1.39-.54-1.51-.18-.14-4.22-.09-4.43,0-.5.22.05,1.39-.76,1.62-.34.1-6.59.13-6.91,0-.5-.21-.07-1.22-.43-1.39-.09-.04-1.96-.04-2.05,0-.3.14,0,1.31-.54,1.51-.17.06-3.4.07-3.56,0-.43-.18-.12-1.24-.43-1.39-.09-.04-1.96-.04-2.05,0-.32.15.04,1.18-.54,1.39-.55.2-5.08-.6-5.94-.81-3.24-.79-8.05-2.96-9.99-5.97-.77-1.2-2.05-3.8.11-4.23Z"/>
          <path class="st92" d="M46.85,65.58c2.83.51,5.49,1.27,8.42,1.16-.55.03-2.42-.02-2.27.52.11.25,3.2.83,3.35,1.57-1.34.89-4.81.19-5.02.35-.09.07-.09.29,0,.35,4.75,1.23,9.6,2.07,14.36,3.25,8.58,2.13,14.78,4.59,23.97,4.06.79-.05,2.26-.15,2.86-.58,9.2.78,25.64-2.23,33.64-7.31.12-.08.59-.36.38-.58.41-.13.88-.41,1.3-.35-.58,1.06-1.04,1.51-1.84,2.32.05-.35-.22-.14-.32-.06-11.49,8.23-38.87,10.03-52.21,7.25-2.72-.57-5.43-1.76-8.04-2.09-3.91-1.52-8.52-2.27-12.58-3.48-7.45-2.22-13.49-5.42-21.54-4.41-3.04-.19-6.21-.13-8.96-1.74.22-.79.48-2.51.65-3.42.18-.96.04-1.96.54-2.96.18,2.5.67,3.03,2.86,3.94,4.47,1.87,9.46.48,14.15.93,2.13.21,4.22.9,6.32,1.28Z"/>
          <path class="st92" d="M26.23,68.83c3.91.73,8.26.38,12.26.81,8.24.88,16.54,3.99,24.46,6.44-1.89.25-4.13-.47-5.99-.17-1.38.22-1.19,1.02-3.13.7-3.4-.57-6.71-3.89-10.31-3.94.05-.47-.09-.31-.38-.35-6.86-.97-13.15,1.89-19.65.46-1.21-.27-2.36-.85-3.56-1.16l.38,1.28c-.13-.22-.75-1.26-.76-1.39-.08-.99,2.1-3.62,2.48-4.64.63,1.28,2.91,1.73,4.21,1.97Z"/>
          <path class="st49" d="M31.31,67.55c-1.7.21-3.46.71-5.08,1.28-1.3-.24-3.58-.69-4.21-1.97.04-.11.28-.89.32-1.04,2.75,1.61,5.92,1.55,8.96,1.74Z"/>
          <path class="st87" d="M52.9,64.89c1.95-.1,3.99-.05,5.94.12,5.27.45,9.9,2.34,14.9,3.83.75.22,1.53.59,2.27.81,1.32.39,2.66.82,4,1.16.2.05.45.07.65.12,14.69,3.62,31.52,2.12,45.89-2.55.21.22-.26.5-.38.58-8,5.08-24.44,8.09-33.64,7.31-3.89-.33-8.52-1.45-12.26-2.67-5.48-1.78-16.82-7.8-22.19-6.73-.93-.12-1.87-.16-2.81-.12-2.93.11-5.59-.65-8.42-1.16,1.99-.08,4.09-.6,6.05-.7Z"/>
          <path class="st82" d="M126,70.34c-11.8,11.93-38.79,9.79-53.77,9.16-1.85-1.64-4.51-3.17-6.8-4.06,2.62.33,5.32,1.52,8.04,2.09,13.33,2.78,40.71.99,52.21-7.25.11-.08.38-.29.32.06Z"/>
          <path class="st22" d="M92.53,76.25c-.6.43-2.07.53-2.86.58-9.19.53-15.39-1.93-23.97-4.06-4.76-1.18-9.61-2.01-14.36-3.25-.09-.06-.09-.28,0-.35.21-.16,3.68.55,5.02-.35.99-.66.75-1.78,1.73-1.97,5.37-1.07,16.71,4.94,22.19,6.73,3.74,1.22,8.37,2.34,12.26,2.67Z"/>
          <path class="st22" d="M58.08,66.86c-.98.2-.74,1.31-1.73,1.97-.14-.73-3.24-1.32-3.35-1.57-.15-.54,1.71-.5,2.27-.52.93-.04,1.88,0,2.81.12Z"/>
          <g>
            <path class="st49" d="M65.43,75.44c2.29.89,4.95,2.42,6.8,4.06-12.06-.51-24.62,1.17-36.55.46-1.99-.12-4.16-.44-6.1-.93-.08-.34.17-.39.38-.46,2.12-.78,4.03-1.14,6.15-2.2,2.3-1.15,4.95-3.75,7.4-3.71,3.6.05,6.91,3.38,10.31,3.94,1.94.32,1.75-.48,3.13-.7,1.86-.3,4.1.43,5.99.17-7.92-2.44-16.21-5.56-24.46-6.44-4-.43-8.34-.08-12.26-.81,1.61-.57,3.37-1.06,5.08-1.28,8.05-1.01,14.09,2.18,21.54,4.41,4.06,1.21,8.67,1.96,12.58,3.48Z"/>
            <path class="st51" d="M42.91,74.16c1.87-.42,4.18,1.14,5.78,2.03l-7.5-.06c-.59-.25,1.23-1.86,1.73-1.97Z"/>
          </g>
          <g>
            <path class="st49" d="M43.51,72.66c-2.45-.04-5.09,2.56-7.4,3.71-2.13,1.06-4.04,1.42-6.15,2.2-.21.08-.46.12-.38.46-3.49-.88-7.36-2.74-9.29-6.15l-.38-1.28c1.2.31,2.35.89,3.56,1.16,6.51,1.43,12.79-1.44,19.65-.46.28.04.43-.13.38.35Z"/>
            <path class="st49" d="M25.2,74.28c1.57-.05,3.42.06,4.7,1.1-1.24,1.39-3.52-.1-4.81-.87l.11-.23Z"/>
          </g>
        </g>
        <g>
          <g class="st95">
            <rect class="st84" x="33.03" y="29.21" width=".27" height="13.99"/>
            <rect class="st94" x="33.3" y="29.21" width=".27" height="13.99"/>
            <rect class="st44" x="33.56" y="29.21" width=".27" height="13.99"/>
            <rect class="st54" x="33.83" y="29.21" width=".27" height="13.99"/>
            <rect class="st96" x="34.09" y="29.21" width=".27" height="13.99"/>
            <rect class="st86" x="34.36" y="29.21" width=".27" height="13.99"/>
            <rect class="st10" x="34.62" y="29.21" width=".27" height="13.99"/>
            <rect class="st55" x="34.89" y="29.21" width=".27" height="13.99"/>
            <rect class="st79" x="35.16" y="29.21" width=".27" height="13.99"/>
            <rect class="st80" x="35.42" y="29.21" width=".27" height="13.99"/>
            <rect class="st41" x="35.69" y="29.21" width=".27" height="13.99"/>
            <rect class="st65" x="35.95" y="29.21" width=".27" height="13.99"/>
            <rect class="st39" x="36.22" y="29.21" width=".27" height="13.99"/>
            <rect class="st35" x="36.48" y="29.21" width=".27" height="13.99"/>
            <rect class="st13" x="36.75" y="29.21" width=".27" height="13.99"/>
            <rect class="st101" x="37.01" y="29.21" width=".27" height="13.99"/>
            <rect class="st17" x="37.28" y="29.21" width=".27" height="13.99"/>
            <rect class="st5" x="37.54" y="29.21" width=".27" height="13.99"/>
            <rect class="st30" x="37.81" y="29.21" width=".27" height="13.99"/>
            <rect class="st6" x="38.07" y="29.21" width=".27" height="13.99"/>
            <rect class="st31" x="38.34" y="29.21" width=".27" height="13.99"/>
            <rect class="st88" x="38.6" y="29.21" width=".27" height="13.99"/>
            <rect class="st74" x="38.87" y="29.21" width=".27" height="13.99"/>
            <rect class="st75" x="39.14" y="29.21" width=".27" height="13.99"/>
            <rect class="st52" x="39.4" y="29.21" width=".27" height="13.99"/>
            <rect class="st99" x="39.67" y="29.21" width=".27" height="13.99"/>
            <rect class="st11" x="39.93" y="29.21" width=".27" height="13.99"/>
            <rect class="st15" x="40.2" y="29.21" width=".27" height="13.99"/>
            <rect class="st53" x="40.46" y="29.21" width=".27" height="13.99"/>
            <rect class="st64" x="40.73" y="29.21" width=".27" height="13.99"/>
            <rect class="st85" x="40.99" y="29.21" width=".27" height="13.99"/>
            <rect class="st90" x="41.26" y="29.21" width=".27" height="13.99"/>
            <rect class="st34" x="41.52" y="29.21" width=".27" height="13.99"/>
            <rect class="st48" x="41.79" y="29.21" width=".27" height="13.99"/>
            <rect class="st70" x="42.05" y="29.21" width=".27" height="13.99"/>
          </g>
          <path class="st63" d="M31.85,34.73c-.19.14-.91.85-1.08,1.04-1.38-2.28-4.78-4.44-2.21-7.31l.27.17c.34,2.42,1.5,4.34,3.02,6.09Z"/>
          <g class="st42">
            <polygon class="st84" points="38.96 32.88 27.85 40.74 27.85 32.88 38.96 32.88"/>
            <polygon class="st84" points="40.66 32.88 27.85 41.94 27.85 40.74 38.96 32.88 40.66 32.88"/>
            <polygon class="st94" points="42.36 32.88 27.85 43.15 27.85 41.94 40.66 32.88 42.36 32.88"/>
            <polygon class="st44" points="44.06 32.88 27.85 44.35 27.85 43.15 42.36 32.88 44.06 32.88"/>
            <polygon class="st54" points="45.76 32.88 27.97 45.46 27.85 45.29 27.85 44.35 44.06 32.88 45.76 32.88"/>
            <polygon class="st96" points="47.46 32.88 28.54 46.27 27.97 45.46 45.76 32.88 47.46 32.88"/>
            <polygon class="st86" points="49.17 32.88 29.11 47.07 28.54 46.27 47.46 32.88 49.17 32.88"/>
            <polygon class="st10" points="50.87 32.88 29.68 47.87 29.11 47.07 49.17 32.88 50.87 32.88"/>
            <polygon class="st55" points="52.57 32.88 30.24 48.67 29.68 47.87 50.87 32.88 52.57 32.88"/>
            <polygon class="st79" points="54.27 32.88 30.81 49.47 30.24 48.67 52.57 32.88 54.27 32.88"/>
            <polygon class="st80" points="55.97 32.88 31.38 50.28 30.81 49.47 54.27 32.88 55.97 32.88"/>
            <polygon class="st41" points="57.67 32.88 31.94 51.08 31.38 50.28 55.97 32.88 57.67 32.88"/>
            <polygon class="st65" points="59.37 32.88 32.51 51.88 31.94 51.08 57.67 32.88 59.37 32.88"/>
            <polygon class="st39" points="60.7 32.88 60.83 33.06 33.08 52.68 32.51 51.88 59.37 32.88 60.7 32.88"/>
            <rect class="st35" x="30.24" y="42.78" width="33.98" height=".98" transform="translate(-16.32 35.22) rotate(-35.27)"/>
            <rect class="st13" x="30.81" y="43.58" width="33.98" height=".98" transform="translate(-16.67 35.69) rotate(-35.27)"/>
            <rect class="st101" x="31.38" y="44.38" width="33.98" height=".98" transform="translate(-17.03 36.17) rotate(-35.27)"/>
            <rect class="st17" x="31.95" y="45.19" width="33.98" height=".98" transform="translate(-17.39 36.64) rotate(-35.27)"/>
            <rect class="st5" x="32.51" y="45.99" width="33.98" height=".98" transform="translate(-17.75 37.12) rotate(-35.27)"/>
            <rect class="st30" x="33.08" y="46.79" width="33.98" height=".98" transform="translate(-18.11 37.59) rotate(-35.27)"/>
            <rect class="st6" x="33.65" y="47.59" width="33.98" height=".98" transform="translate(-18.47 38.07) rotate(-35.27)"/>
            <rect class="st31" x="34.21" y="48.39" width="33.98" height=".98" transform="translate(-18.83 38.54) rotate(-35.27)"/>
            <rect class="st88" x="34.78" y="49.2" width="33.98" height=".98" transform="translate(-19.19 39.02) rotate(-35.27)"/>
            <rect class="st74" x="35.35" y="50" width="33.98" height=".98" transform="translate(-19.55 39.49) rotate(-35.27)"/>
            <rect class="st75" x="35.92" y="50.8" width="33.98" height=".98" transform="translate(-19.91 39.96) rotate(-35.27)"/>
            <polygon class="st52" points="67.07 41.88 67.59 42.62 67.59 42.72 39.89 62.31 39.32 61.5 67.07 41.88"/>
            <polygon class="st99" points="67.59 43.92 40.45 63.11 39.89 62.31 67.59 42.72 67.59 43.92"/>
            <polygon class="st11" points="67.59 45.12 41.02 63.91 40.45 63.11 67.59 43.92 67.59 45.12"/>
            <polygon class="st15" points="67.59 46.33 41.59 64.71 41.02 63.91 67.59 45.12 67.59 46.33"/>
            <polygon class="st53" points="67.59 47.53 42.88 65 41.79 65 41.59 64.71 67.59 46.33 67.59 47.53"/>
            <polygon class="st64" points="67.59 48.73 44.58 65 42.88 65 67.59 47.53 67.59 48.73"/>
            <polygon class="st85" points="67.59 49.94 46.28 65 44.58 65 67.59 48.73 67.59 49.94"/>
            <polygon class="st90" points="67.59 51.14 47.98 65 46.28 65 67.59 49.94 67.59 51.14"/>
            <polygon class="st34" points="67.59 52.34 49.68 65 47.98 65 67.59 51.14 67.59 52.34"/>
            <polygon class="st48" points="67.59 53.54 51.38 65 49.68 65 67.59 52.34 67.59 53.54"/>
            <polygon class="st70" points="67.59 54.75 53.09 65 51.38 65 67.59 53.54 67.59 54.75"/>
            <polygon class="st70" points="53.09 65 67.59 54.75 67.59 65 53.09 65"/>
          </g>
          <g>
            <path class="st19" d="M27.85,44.36c.83.6,1.6,1.37,2.54,1.97,8.17,5.23,17.68,9.03,22.51,18.56-1.95.1-4.06.62-6.05.7-2.1-.38-4.18-1.07-6.32-1.28-4.69-.45-9.67.95-14.15-.93-2.19-.92-2.68-1.44-2.86-3.94-.41-5.54,1.73-10.45,3.56-15.42.15.27.68.29.76.35Z"/>
            <g>
              <path class="st19" d="M48.53,60.6c.43.55,1.16,1.15,1.3,1.86-.12-.16-1.62-1.7-1.3-1.86Z"/>
              <path class="st19" d="M40.97,54.33c.36.07.77.37,1.03.64-.3.04-.89-.36-1.03-.64Z"/>
              <path class="st19" d="M38.49,52.71l1.03.64c-.32.02-.97-.29-1.03-.64Z"/>
              <path class="st19" d="M45.94,57.93c.24-.14.8.57.54.7l-.54-.7Z"/>
              <path class="st19" d="M50.69,63.26c.22.15.58.63.54.93-.25-.25-.5-.54-.54-.93Z"/>
              <polygon class="st19" points="34.27 50.04 34.87 50.56 34.17 50.27 34.27 50.04"/>
              <path class="st19" d="M44.96,57.23c.2.11.58.06.59.41-.06.15-.66-.24-.59-.41Z"/>
              <path class="st19" d="M42.37,55.26c.24.07.55.21.59.52-.19-.06-.6-.26-.59-.52Z"/>
              <path class="st19" d="M37.51,52.13c.2-.03.54.2.59.41-.03.07-.68-.14-.59-.41Z"/>
              <path class="st19" d="M49.93,62.57c.16-.05.51.4.32.46-.13.01-.34-.34-.32-.46Z"/>
              <polygon class="st19" points="35.03 50.62 35.19 50.68 35.14 50.85 35.08 50.8 35.03 50.62"/>
            </g>
          </g>
          <path class="st45" d="M93.39,57.12c-.46.68-.76,1.64-1.19,2.32-.2.31-.62.81-.86,1.16l-.32.35c-.68.9-1.05,1.63-1.94,2.32-.15.12-.58.18-.54.58-2.58,2.43-5.15,4.84-7.88,7.07-.2-.05-.45-.07-.65-.12,4.53-3.81,9.66-7.68,12.2-13.4-.61-.12-3.14-1.46-3.51-1.33-.12.04-1.3,1.75-1.57,2.03-1.45,1.55-2.97,3.09-4.48,4.58-.83.82-6.77,5.96-6.86,6.44-.07.39.27.2.22.52-.74-.22-1.52-.59-2.27-.81.73-.63,1.43-1.34,2.16-1.97,4.26-3.67,9.03-7.24,12.42-11.83,1.62.73,3.4,1.56,5.08,2.09Z"/>
          <path class="st76" d="M108.62,63.84c-1.85,1.49-4.26,4.64-6.32,5.57-1.8.82-4.78,1.08-6.75,1.16,3.05-2.78,7.04-4.68,10.8-6.15.64-.25,1.66-.35,2.27-.58Z"/>
          <path class="st20" d="M111.21,62.45c-.82.5-1.7,1.05-2.59,1.39-.61.23-1.63.33-2.27.58-.3-.37.9-.82,1.13-.93,1.26-.55,2.52-.65,3.73-1.04Z"/>
          <g>
            <path class="st21" d="M128.92,59.9c-.46.77.07,1.7.11,2.49.12,2.43-.05,3.56-1.19,5.62-.42-.07-.88.21-1.3.35-14.37,4.67-31.2,6.17-45.89,2.55,2.74-2.23,5.3-4.65,7.88-7.07.19-.18.43-.31.54-.58.9-.69,1.26-1.42,1.94-2.32.08-.1.21-.19.32-.35.24-.35.67-.84.86-1.16-.14,1.52-1.62,3.29-2.59,4.47-1.62,1.96-3.7,3.69-5.51,5.45,3.59,1.11,7.7,1.37,11.45,1.22,1.96-.08,4.94-.34,6.75-1.16,2.05-.93,4.46-4.08,6.32-5.57.89-.34,1.77-.89,2.59-1.39,2.86-.92,6.69-2.03,9.34-3.36,1.07-.54,2.25-1.2,2.97-2.2,3.83.13,2.95.88,5.4,3.02Z"/>
            <g>
              <path class="st37" d="M116.34,65.93c.98-.33,1.2,1.05.54,1.28-.89.3-1.27-1.03-.54-1.28Z"/>
              <path class="st21" d="M122.93,59.09c.35.02-.25.52-.32.46-.18-.28.2-.32.32-.46Z"/>
              <path class="st21" d="M122.17,59.55c.4.07-.42.47-.49.41l.49-.41Z"/>
              <path class="st50" d="M89.07,63.26c-.11.27-.35.4-.54.58-.04-.4.39-.46.54-.58Z"/>
              <path class="st21" d="M120.98,60.13c.18,0,.24.1.11.23l-.49.06s.35-.29.38-.29Z"/>
              <path class="st21" d="M113.64,62.92c.31.16-.56.46-.59.29l.59-.29Z"/>
              <path class="st21" d="M120.23,60.48c.4.1-.45.5-.49.29l.49-.29Z"/>
              <path class="st98" d="M91.34,60.6c-.11.16-.25.24-.32.35l.32-.35Z"/>
              <path class="st21" d="M114.61,62.57c.06-.02.25-.02.27.06l-.38.17c-.11-.06.07-.22.11-.23Z"/>
            </g>
          </g>
          <g>
            <path class="st20" d="M123.52,56.88c-.72,1.01-1.9,1.67-2.97,2.2-2.65,1.33-6.48,2.44-9.34,3.36-1.21.39-2.47.49-3.73,1.04-.24.1-1.44.56-1.13.93-3.75,1.47-7.75,3.36-10.8,6.15-3.74.15-7.86-.11-11.45-1.22,1.81-1.76,3.89-3.49,5.51-5.45.97-1.17,2.45-2.95,2.59-4.47.42-.68.73-1.64,1.19-2.32,1.9.6,3.66.91,5.67.7,1.53-.16,4.6-1.1,4.05-3.36,1.6.2,3.12.92,4.7,1.28,5.49,1.24,10.2.97,15.71,1.16Z"/>
            <g>
              <path class="st61" d="M107.38,57.12c.25-.11,1.65.29,1.46.75-.22.51-2.21-.4-1.46-.75Z"/>
              <path class="st73" d="M93.66,59.09c.83-.11.85,1.09.22,1.16-.57.06-1.03-1.05-.22-1.16Z"/>
              <path class="st81" d="M119.04,58.16c.42-.11,1.38-.03,1.67.41-.31.35-2.03.12-2.05-.12.07-.08.31-.27.38-.29Z"/>
              <path class="st66" d="M99.06,59.67c.88-.12.85,1.29-.11,1.04-.55-.14-.41-.98.11-1.04Z"/>
              <path class="st36" d="M100.14,62.57c.78-.25,1.09.7.54.93-.75.31-1.24-.7-.54-.93Z"/>
              <path class="st89" d="M93.23,61.99c.78-.17.97.92.32,1.04-.58.11-1.06-.89-.32-1.04Z"/>
              <path class="st16" d="M104.78,59.9c.31-.03.82.44.54.81-.53.7-1.59-.72-.54-.81Z"/>
              <path class="st83" d="M108.13,58.74c.58-.17.94.65.43.81-.53.17-1.06-.63-.43-.81Z"/>
              <path class="st8" d="M103.27,58.16c.35-.06.81.37.54.7-.43.53-1.4-.56-.54-.7Z"/>
              <path class="st97" d="M112.34,58.16c.39-.04.85.65.32.81-.64.2-.99-.74-.32-.81Z"/>
              <path class="st40" d="M96.58,62.57c.91-.28.81,1.01,0,.7-.26-.1-.3-.6,0-.7Z"/>
              <path class="st100" d="M116.34,58.97c.21-.08.61.18.59.29-.08.5-1.23-.06-.59-.29Z"/>
            </g>
          </g>
          <path class="st77" d="M70.83,45.52c-1.34,1.55-13.23,9.29-13.39,10.26-.11.66.33,1.09.81,1.33.75.39,10.59,3.57,11.18,3.6l6.48,6.15c-.73.63-1.43,1.34-2.16,1.97-5-1.48-9.64-3.38-14.9-3.83-4-4.36-8.72-7.93-13.39-11.42,4.33-.77,8.57-2.12,12.58-4,1.62-.76,3.19-1.9,4.81-2.67.76-.36,1.97-.52,2.86-.93s2.1-1.15,2.86-1.86c.74.48,1.52.93,2.27,1.39Z"/>
          <path class="st71" d="M88.32,55.03c-3.39,4.59-8.16,8.16-12.42,11.83l-6.48-6.15c.5.02.81-.15,1.24-.35l11.5-8.35c.7-.09,5.16,2.57,6.15,3.02Z"/>
          <path class="st77" d="M68.56,44.13c-.76.71-1.94,1.44-2.86,1.86s-2.11.57-2.86.93l4.75-3.36c.3.2.65.37.97.58Z"/>
          <path class="st59" d="M80,70.8c-1.34-.34-2.67-.77-4-1.16.05-.32-.29-.14-.22-.52.09-.48,6.02-5.62,6.86-6.44,1.51-1.49,3.03-3.03,4.48-4.58.26-.28,1.45-1.99,1.57-2.03.37-.12,2.9,1.21,3.51,1.33-2.54,5.71-7.67,9.59-12.2,13.4Z"/>
          <g>
            <path class="st59" d="M82.16,52.01l-11.5,8.35c-.43.2-.75.37-1.24.35-.58-.03-10.43-3.21-11.18-3.6-.48-.25-.92-.68-.81-1.33.16-.97,12.05-8.71,13.39-10.26,3.71,2.3,7.6,4.24,11.34,6.49Z"/>
            <path class="st59" d="M72.28,49.81c.59-.11,4.21.29,4.16.99-2.98,2.26-5.97,4.7-9.23,6.44-1.45.05-2.89-.29-4.27-.75-.1-.24,3.57-2.81,3.94-3.07.84-.61,4.74-3.47,5.4-3.6Z"/>
          </g>
          <g>
            <path class="st21" d="M66.18,27.08c-.17.17-.61.5-.65.75-.21,1.6,4.19,4.44,4.97,5.74-2.24-.53-4.11.07-6.1,1.16-.44.24-2.77,2.1-2.97,1.91-.02-.19-.19-.55-.22-.7-.32-2.13,3.02-7.31,3.78-9.45.23.16.78.27,1.19.58Z"/>
            <path class="st14" d="M83.78,41.46c.4.45,1.37,1.1,1.4,1.62,0,.13,0,.27,0,.41-.25.44-.68.47-1.08.64-1.13.48-3.42,1.07-4.64,1.28-.39.07-.67.1-1.08.12-.4-.37-.94-.74-.86-1.39.22-.53.76-.96,1.19-1.28.14-.11,1.22-.73,1.4-.81,1.2-.55,2.36-.91,3.67-.58Z"/>
            <path class="st38" d="M74.17,34.62c-1.88-.16-2.07-.67-3.67-1.04-.78-1.3-5.18-4.14-4.97-5.74.03-.25.48-.58.65-.75,2.93,2.19,5.46,4.86,7.99,7.54Z"/>
            <path class="st14" d="M78.38,38.79c-.81.06-1.44.56-2.16.81-1.04.36-2.63,1.09-3.67,1.16-1.15.08-1.77-.64-1.08-1.74.48-.44,2.06-1.14,2.7-1.39.4-.16.89-.34,1.3-.46.45-.13,1.41-.14,1.51-.46.45.57,1.73.8,1.4,2.09Z"/>
            <path class="st7" d="M90.05,46.33c-.24.42-.44.91-.76,1.28-.06.07-.15.16-.22.23-.55.58-1.87,1.53-2.59,1.86-.63.09-1.43-.26-1.51-1.04.16-.67.67-.96,1.08-1.39.19-.21.48-.41.76-.7.15-.16.39-.18.65-.58.52-.82.59-1-.11-1.74,1.74-.49,2.05,1.47,2.7,2.09Z"/>
            <path class="st7" d="M95.88,50.04c-.03.28-.58.89-.76,1.16-.13.19-.29.4-.43.58-.18.22-.61.79-.76.93-.52.48-.86.71-1.51.81-.46-.09-1.06-.62-.97-1.16.1-.49.39-.88.65-1.28.08-.12.38-.34.54-.58.14-.2.29-.39.43-.58.3-.39.6-.73.86-1.16.13-.21.32-.42.32-.7.77.28,1.73.91,1.62,1.97Z"/>
            <path class="st25" d="M78.38,38.79c.19.03.99.78,1.08.93.39.63.47,1.38.54,2.09-.83.73-3.02-1.19-3.67-1.86-.01-.01-.02-.25-.11-.35.72-.25,1.35-.75,2.16-.81Z"/>
            <path class="st72" d="M92.64,47.72c-.02.13.09.1.11.12.25.2.51.38.76.58.14.12.28.25.43.35-.26.43-.57.77-.86,1.16l-3.78-2.32c.32-.37.52-.85.76-1.28.11.11,2.22,1.25,2.59,1.39Z"/>
            <path class="st62" d="M83.78,41.46c-1.31-.33-2.47.03-3.67.58,0-.1-.1-.12-.11-.23-.07-.7-.15-1.46-.54-2.09,2.13-.77,3.05.31,4.32,1.74Z"/>
            <path class="st0" d="M99.12,52.25c-.44.47-1.15.38-1.73.23-.61-.15-1.65-.99-2.27-1.28.18-.27.73-.88.76-1.16.96.51,2.65.79,3.24,1.68.04.07-.04.45,0,.52Z"/>
            <path class="st12" d="M87.35,44.24c.7.74.62.92.11,1.74l-3.35-1.86c.4-.17.83-.19,1.08-.64,0-.13,0-.27,0-.41.49,0,1.84.82,2.16,1.16Z"/>
            <path class="st62" d="M76.98,36.7c-.11.32-1.06.33-1.51.46l-1.08-2.55c.4.02.62-.23,1.13,0,.43.2,1.11,1.64,1.46,2.09Z"/>
            <path class="st7" d="M93.39,47.84l.11.58c-.25-.2-.51-.38-.76-.58.15.06.5-.06.65,0Z"/>
            <path class="st7" d="M92.75,47.84s-.13.02-.11-.12c.15.06.1.11.11.12Z"/>
            <path class="st32" d="M86.05,47.26c-.41.44-.92.72-1.08,1.39-.33,1.38.56,1.47,1.51,1.04.72-.32,2.04-1.27,2.59-1.86.13.13.09.45.11.46-1.6.55-2.21,3.14-4.05,2.55s-1.25-4.03.92-3.6Z"/>
            <path class="st46" d="M84.11,44.13l3.35,1.86c-.25.4-.5.42-.65.58-.79-.26-2.25-1.5-2.97-1.62-1.03-.18-2.88.82-4.05.7-.02,0-.31-.17-.32-.23,1.22-.2,3.51-.79,4.64-1.28Z"/>
            <path class="st29" d="M78.71,42.85c-.43.32-.96.75-1.19,1.28-.52,1.23-.22,1.42.86,1.39.41-.01.69-.05,1.08-.12.02.07.3.23.32.23-2.89,3.3-5.34-2.75-1.08-2.78Z"/>
            <path class="st91" d="M92.1,51.09c-.25.4-.55.79-.65,1.28-.24,1.14.02,1.31.97,1.16.66-.1.99-.34,1.51-.81-.2,1.5-1.79,2.49-2.97,1.51s-.36-3.31,1.13-3.13Z"/>
            <path class="st27" d="M93.07,49.93c-.15.19-.3.38-.43.58-.63-.95-2.85-1.57-3.46-2.2-.02-.02.02-.34-.11-.46.07-.07.16-.16.22-.23l3.78,2.32Z"/>
            <path class="st46" d="M97.39,52.48c-.68,1.09-1.8-.56-2.7-.7.14-.18.3-.39.43-.58.62.28,1.66,1.12,2.27,1.28Z"/>
            <path class="st43" d="M76.22,39.6c.09.1.1.34.11.35-1.04.34-2.72,1.15-3.78,1.16v-.35c1.04-.07,2.63-.8,3.67-1.16Z"/>
            <g>
              <path class="st24" d="M64.99,26.5c-.76,2.14-4.1,7.32-3.78,9.45.02.14.2.51.22.7.2.19,2.53-1.67,2.97-1.91,1.99-1.09,3.86-1.69,6.1-1.16,1.6.38,1.79.89,3.67,1.04.07,0,.14,0,.22,0l1.08,2.55c-.41.12-.9.31-1.3.46-3.15-2.71-5.46-3.33-9.12-1.28-1.31.73-2.44,1.96-3.62,2.78-5.08,3.56-9.99,7.24-16.47,6.49-2.76-.32-5.94-1.94-7.4-4.58s-1.15-8.17-5.13-5.16c-2.35,1.77-3.52,5.75-4.59,8.47-.08-.05-.61-.08-.76-.35,1.03-2.8,1.68-5.96,3.67-8.23.17-.2.89-.9,1.08-1.04.24-.18.91-.59,1.19-.7,4.61-1.8,4.06,4.36,6.15,7.02.86,1.09,1.93,1.65,3.13,2.15,6.68,2.73,13.44-1.67,18.57-5.97-.39-2.02-1.69-3.97-1.84-6.03-.2-2.86,1.52-8.25,4.91-5.86.33.23.77.98,1.03,1.16Z"/>
              <path class="st22" d="M61.7,26.73c.64-.09,2.04,1,2,1.68-.06.95-2.84,5.02-2.97,6.44-1.12-1.37-.9-7.86.97-8.12Z"/>
            </g>
            <path class="st69" d="M78.38,45.52c-1.09.03-1.38-.17-.86-1.39-.08.66.47,1.02.86,1.39Z"/>
            <path class="st3" d="M86.48,49.69c-.95.43-1.85.34-1.51-1.04.08.78.88,1.14,1.51,1.04Z"/>
            <path class="st2" d="M92.42,53.52c-.95.15-1.21-.02-.97-1.16-.08.54.52,1.07.97,1.16Z"/>
            <g>
              <path class="st46" d="M74.17,37.63c-.64.25-2.22.95-2.7,1.39-1.1,1.01-.12,2.09,1.08,2.09,1.06,0,2.74-.82,3.78-1.16.65.67,2.84,2.58,3.67,1.86.01.12.11.13.11.23-.18.08-1.26.7-1.4.81-4.26.03-1.82,6.09,1.08,2.78,1.16.13,3.02-.88,4.05-.7.72.13,2.18,1.36,2.97,1.62-.27.29-.56.49-.76.7-2.17-.44-2.84,2.98-.92,3.6s2.45-2,4.05-2.55c.6.63,2.83,1.25,3.46,2.2-.16.24-.46.46-.54.58-1.5-.18-2.33,2.13-1.13,3.13s2.77,0,2.97-1.51c.15-.14.58-.71.76-.93.9.14,2.02,1.79,2.7.7.57.15,1.29.24,1.73-.23.38.63,3.82,1.48,4,2.2.55,2.27-2.52,3.2-4.05,3.36-2.01.21-3.77-.1-5.67-.7-1.68-.53-3.46-1.36-5.08-2.09-1-.45-5.46-3.11-6.15-3.02-3.73-2.25-7.62-4.2-11.34-6.49-.75-.46-1.53-.91-2.27-1.39-.32-.21-.67-.38-.97-.58-2.11-1.4-3.99-3.15-6.15-4.41,1.18-.83,2.31-2.05,3.62-2.78,3.67-2.05,5.97-1.43,9.12,1.28Z"/>
              <path class="st9" d="M71.47,39.02c-.69,1.1-.07,1.81,1.08,1.74v.35c-1.2,0-2.18-1.08-1.08-2.09Z"/>
              <g>
                <path class="st20" d="M68.5,37.28c2.23-.33,1.6,3.53-.43,2.55-1.02-.49-.62-2.39.43-2.55Z"/>
                <path class="st56" d="M68.72,38.21c.71-.1,1.12,1.11.32,1.28-.9.19-1.09-1.17-.32-1.28Z"/>
              </g>
            </g>
          </g>
        </g>
      </g>
    </g>
    <g>
      <g id="Generative_Object1" data-name="Generative_Object">
        <g>
          <path class="st18" d="M149.72,114.45c3.99,3.68,4.31,10.3-.33,13.57-3.08,2.17-6.3,2.44-9.6.74-5.31-2.74-24.34-15.67-28.72-19.61-1.84-1.65-2.66-2.8-1.45-5.26.45-.91,2.34-3.45,3.05-4.42.19-.26.56-.64.82-.97l-.36,1.08c12.49,8.44,25.14,16.68,37.3,25.62l.8.17c.21-.88,1-2.04,1.14-2.87.29-1.73-.13-4.92-1.29-5.85l-1.36-2.2Z"/>
          <path class="st4" d="M144.03,131.34c-1.64,0-3.29-.42-4.92-1.26-5.66-2.92-24.65-15.89-29.03-19.83-1.91-1.72-3.49-3.55-1.79-7.01.42-.85,1.66-2.56,2.89-4.24l.29-.39c.14-.18.3-.37.47-.56.13-.15.27-.31.37-.44.44-.57,1.23-.75,1.87-.41.64.34.94,1.09.71,1.77v.02c2.61,1.76,5.26,3.54,7.83,5.26,9.17,6.14,18.64,12.49,27.72,19.13,0,0,0-.01,0-.02.18-.39.42-.87.45-1.1.28-1.68-.28-4.07-.76-4.45-.13-.1-.24-.23-.33-.37l-1.36-2.2c-.39-.63-.26-1.45.32-1.92s1.4-.45,1.94.05c2.42,2.23,3.74,5.48,3.53,8.69-.19,2.94-1.62,5.49-4.01,7.18-1.99,1.4-4.08,2.11-6.2,2.11ZM113.12,101.35c-.77,1.06-1.9,2.62-2.17,3.18-.74,1.52-.6,1.98,1.11,3.51,4.16,3.74,23.01,16.62,28.41,19.4,2.78,1.44,5.42,1.23,8.07-.63.27-.19.53-.4.76-.62-9.22-6.76-18.87-13.23-28.22-19.49-2.61-1.75-5.3-3.55-7.96-5.34Z"/>
        </g>
        <path class="st4" d="M115.53,97.03c-.29,0-.57-.08-.82-.25l-6.45-4.31-1.6,2.47c-.22.33-.56.57-.95.65-.39.08-.8,0-1.13-.23-.09-.06-.39-.2-.57-.28-.23-.11-.45-.21-.64-.31-.37-.2-.63-.55-.72-.96-.09-.41-.01-.84.23-1.18,1.1-1.58,2.6-4.02,3.34-5.61.19-.4.54-.7.96-.81.43-.11.88-.03,1.24.23l9.56,6.82c.45.32.68.87.6,1.42-.08.54-.46,1-.98,1.18-.19.08-.74.48-1.06.78-.28.27-.65.41-1.02.41Z"/>
        <g>
          <path class="st58" d="M105.41,94.13c2.46,1.68,4.9,3.51,7.26,5.33-.71.97-2.6,3.51-3.05,4.42l-8.83-6.1c1.06-1.15,2.38-3,3.3-4.32.34.19,1.04.47,1.32.67Z"/>
          <path class="st4" d="M109.62,105.36c-.3,0-.59-.09-.84-.26l-8.83-6.1c-.35-.24-.58-.63-.63-1.05-.05-.43.09-.85.38-1.17,1.14-1.24,2.67-3.44,3.17-4.16.43-.62,1.27-.82,1.93-.45.1.05.29.14.45.22.37.17.72.34.98.52h0c2.15,1.47,4.41,3.13,7.33,5.38.64.49.76,1.4.29,2.04l-.29.4c-.68.93-2.29,3.11-2.62,3.79-.19.39-.54.67-.95.78-.12.03-.25.05-.37.05ZM102.97,97.49l6.21,4.29c.41-.61.91-1.31,1.44-2.02-2.33-1.78-4.23-3.16-6.05-4.4,0,0,0,0,0,0-.5.69-1.05,1.45-1.6,2.14ZM104.58,95.36h0,0ZM104.58,95.35h0Z"/>
        </g>
        <path class="st33" d="M115.53,95.55c-.55.52-1.46,2.19-2.03,2.94-.26.34-.63.71-.82.97-2.36-1.82-4.8-3.65-7.26-5.33l2.42-3.73,7.7,5.14Z"/>
        <g>
          <path class="st26" d="M117.12,94.45c.76-.26,2.25-.06,3,.25,8.35,6.99,21.84,12.59,29.6,19.75l1.36,2.2c1.16.93,1.58,4.12,1.29,5.85-.14.83-.93,1.99-1.14,2.87l-.8-.17c-12.16-8.94-24.81-17.17-37.3-25.62l.36-1.08c.57-.75,1.48-2.42,2.03-2.94.35-.33,1.15-.95,1.59-1.1Z"/>
          <path class="st57" d="M119.98,97.96c.42-.25,1.32.2,1.72.39,3.73,1.84,22.03,13.72,24.82,16.34,1.41,1.33,1,3-.89,2.24-6.85-6.24-18.56-11.09-25.12-17.03-.51-.47-1.46-1.37-.53-1.94Z"/>
        </g>
        <g>
          <path class="st59" d="M58.06,102.5c-.63-.28-1.25-.58-1.86-.89-7.54-3.82-13.52-9.61-17.3-16.75-4.11-7.77-5.33-16.77-3.54-26.05,2.13-11.01,9.07-20.81,19.04-26.88,10.22-6.22,22.45-7.92,33.55-4.66,11,3.23,20.08,11.22,24.9,21.9,4.86,10.76,4.83,22.96-.07,33.45h0c-.81,1.74-2.29,4.11-3.4,5.69-1.37,1.96-2.4,3.3-3.24,4.2-6.72,7.26-15.22,11.84-24.59,13.25-7.87,1.18-16.14.02-23.5-3.26ZM90.81,33.51c-1.37-.61-2.78-1.13-4.23-1.56-9.79-2.88-20.59-1.37-29.64,4.14-8.8,5.36-14.92,13.98-16.79,23.64-1.58,8.17-.52,16.07,3.06,22.84,3.3,6.24,8.55,11.32,15.19,14.68,6.91,3.5,14.88,4.8,22.43,3.67,8.26-1.24,15.78-5.3,21.73-11.74,1-1.08,2.37-3.04,2.82-3.68.98-1.4,2.32-3.56,2.97-4.96,4.3-9.2,4.32-19.91.05-29.37-3.6-7.97-9.88-14.23-17.59-17.67Z"/>
          <path class="st60" d="M75.51,107.85c-6.19,0-12.45-1.31-18.13-3.85h0c-.65-.29-1.3-.6-1.94-.92-7.85-3.97-14.08-10.01-18.01-17.45-4.28-8.1-5.56-17.49-3.7-27.14,2.21-11.46,9.43-21.66,19.81-27.98,10.61-6.47,23.33-8.23,34.88-4.83,11.47,3.37,20.92,11.68,25.94,22.81,5.06,11.2,5.03,23.9-.08,34.83-.85,1.83-2.39,4.3-3.54,5.94-1.42,2.03-2.49,3.42-3.38,4.37-6.98,7.54-15.81,12.3-25.56,13.76-2.07.31-4.17.46-6.29.46ZM58.73,100.99c7.05,3.15,15.08,4.26,22.58,3.13,9-1.35,17.16-5.75,23.63-12.74.78-.84,1.76-2.12,3.09-4.02,1.06-1.52,2.48-3.8,3.25-5.44,4.7-10.06,4.72-21.75.06-32.07-4.62-10.24-13.32-17.9-23.86-21-10.66-3.13-22.41-1.5-32.23,4.48-9.58,5.84-16.24,15.23-18.28,25.79-1.72,8.9-.55,17.54,3.38,24.97,3.62,6.84,9.35,12.39,16.58,16.05.59.3,1.19.58,1.79.85h0ZM75.46,102.97c-6.12,0-12.29-1.45-17.8-4.25-6.94-3.51-12.44-8.83-15.9-15.38-3.76-7.11-4.87-15.38-3.22-23.93,1.95-10.12,8.35-19.13,17.55-24.74,9.44-5.75,20.73-7.32,30.96-4.32,1.51.44,3,.99,4.44,1.63h0c8.14,3.63,14.68,10.2,18.42,18.49,4.47,9.9,4.45,21.11-.06,30.75-.73,1.55-2.12,3.79-3.12,5.21-.47.67-1.88,2.69-2.96,3.86-6.21,6.72-14.06,10.95-22.7,12.25-1.86.28-3.74.42-5.62.42ZM76.57,32.17c-6.48,0-12.99,1.81-18.77,5.33-8.41,5.12-14.25,13.34-16.03,22.54-1.51,7.8-.5,15.32,2.9,21.76,3.14,5.94,8.15,10.77,14.47,13.98,6.61,3.35,14.22,4.59,21.44,3.51,7.89-1.18,15.07-5.06,20.76-11.22.61-.66,1.51-1.84,2.68-3.51.92-1.31,2.22-3.41,2.83-4.71,4.1-8.77,4.11-18.97.04-27.99-3.41-7.56-9.36-13.54-16.76-16.84h0c-1.3-.58-2.66-1.08-4.03-1.48-3.11-.91-6.32-1.36-9.54-1.36Z"/>
        </g>
      </g>
      <g class="st67">
        <path class="st78" d="M107.29,82.46l-.72-.21c3.74-17.64-4.14-37.68-22.33-43.27-14.73-4.52-30.51,1.76-40.74,12.69l-.37-.36c7.35-15.44,24.26-24.06,41.09-20.05,22.48,5.35,33.98,30.86,23.05,51.2Z"/>
        <g>
          <g class="st68">
            <path class="st23" d="M107.26,82.28c-21.75,40.67-83.63,10.61-63.84-31.16l.36.36c10.15-10.89,25.84-17.13,40.5-12.6,18.09,5.6,25.96,25.6,22.27,43.18l.71.21Z"/>
          </g>
          <path class="st51" d="M49.84,48.55c1.93-1.19,4.33-.3,4.52,2.11.07.82-2.5,6.52-2.89,8.12-1.21,5.02-.91,10.26.39,15.24.62,2.36,3.59,6.6.7,8.55-5.81,3.93-8.76-11.47-8.94-15.2-.21-4.37,2.37-16.46,6.22-18.83Z"/>
          <path class="st51" d="M54.2,83.96c3.18-1.99,9.61,5.51,7.1,7.35s-11.38-4.68-7.1-7.35Z"/>
          <path class="st93" d="M64.05,90.53c3.09-1.56,7.64,4.77,1.82,4.21-2.43-.23-4.08-3.07-1.82-4.21Z"/>
        </g>
      </g>
    </g>
    <path class="st4" d="M87.35,85.12c-.43,0-.97,0-1.65-.02-3.04-.06-3.27-.15-3.53-.27-.33-.14-.57-.34-.74-.57-.5.53-1.21.66-1.6.68-.02,0-4.15-.18-4.81-.47-.22-.1-.45-.24-.64-.46-.2.19-.46.35-.8.43-.41.09-2.43-.06-2.69-.14-.26-.08-.58-.22-.86-.48-.18.18-.41.34-.7.45-.27.1-.43.11-2.03.17-.29.01-.54.02-.65.03-1.31.08-2.62.05-3.88.02-1.55-.03-3.02-.07-4.48.09-.2.02-.41,0-.6-.06-.72-.22-1.18-.74-1.39-1.52-.62,0-1.4,0-2,.01-.2.86-.7,1.41-1.48,1.64-.17.05-.47.13-3.86.14-3.52,0-3.73-.08-4.02-.2-.45-.19-.73-.48-.9-.8-.19.38-.51.75-1.05.94-.42.15-4.05.22-4.64-.03-.46-.2-.74-.52-.9-.86-.19.36-.51.7-1.04.89-1.23.44-6.74-.75-6.79-.77-2.92-.71-8.51-2.91-10.88-6.61-.86-1.35-1.75-3.28-1.09-4.84.15-.36.48-.91,1.17-1.29.27-.73.8-1.57,1.5-2.64.33-.5.77-1.18.86-1.42.04-.11.25-.79.28-.92.14-.49.31-1.5.45-2.32.06-.37.12-.71.17-.98.04-.24.07-.52.09-.82.05-.61.1-1.36.41-2.14-.28-5.14,1.44-9.71,3.1-14.14.19-.51.38-1.02.57-1.53.23-.64.45-1.29.67-1.98.65-1.98,1.31-4.02,2.55-5.79-.17-.22-.36-.45-.56-.68-1.39-1.67-3.71-4.46-.92-7.57.49-.54,1.29-.65,1.9-.26l.27.17c.36.23.6.61.66,1.04.21,1.52.81,2.9,1.9,4.36.01,0,.02-.01.04-.02,1.7-1.46,3.21-1.99,4.61-1.6,2.3.63,3.16,3.35,4,5.97.35,1.1.68,2.14,1.07,2.86.22.4.51.79.83,1.2.19.25.39.51.58.78,5.72,2.04,11.69-1.84,15.93-5.3-.16-.5-.36-1.01-.57-1.55-.48-1.21-.97-2.45-1.07-3.84-.16-2.27.7-6.25,3.07-7.59.74-.42,2.27-.92,4.17.41.36.25.64.62.89.95.05.06.1.14.15.2.02,0,.04.02.07.03.29.11.73.28,1.13.59,2.83,2.12,5.3,4.67,7.67,7.17.33-.05.82-.06,1.39.2.66.3,1.07.94,1.66,1.95.1.18.26.44.33.54.05.04.16.11.24.17.42.28,1.38.93,1.54,2.13,0,0,0,0,0,0,2.44-.46,3.81,1.09,4.94,2.36l.05.05c.07.07.22.21.36.34.33.29.7.63.99,1.03.54.22,1.09.54,1.51.83,1.82-.09,2.69,1.46,3.09,2.18.06.11.14.25.2.35.48.28,1.84,1.01,2.14,1.14.21,0,.48,0,.75.11.06.02.16.04.26.07.16.03.36.08.57.15,1.29.46,2.17,1.31,2.48,2.34.09.03.18.06.27.1.97.35,2.17.79,2.84,1.79.12.18.19.37.23.55.29.13.67.29.96.4.97.4,1.81.74,2.37,1.23.85.16,1.65.42,2.43.68.63.2,1.22.4,1.8.53,4.09.92,7.81.98,11.75,1.04,1.19.02,2.42.04,3.68.08,3.06.1,3.84.66,4.99,2.01.25.29.53.62.92,1,.28,0,.61.07.92.31h0c2.22,1.66,2.3,7.09,2.03,8.58-.32,1.73-2.07,6.23-11.45,10.75-.61.3-2.71,1.17-4.59,1.89-4.26,1.63-4.67,1.49-5.18,1.31-.08-.03-.16-.06-.23-.1-.14.22-.33.44-.6.62-.25.17-.44.3-3.53.93-1.94.4-3.1.6-3.45.6-.55,0-1.7-.13-2.21-1.18-.19.03-.38.06-.56.09-.1.5-.36,1.1-1.06,1.49-.2.11-.42.17-.65.18l-7.45.35c-.18,0-.37-.02-.54-.08-.65-.22-1-.66-1.18-1.1-.17.42-.47.85-1.04,1.07-.21.09-.39.16-1.9.16ZM83.93,82.09c1.04.04,2.7.07,3.72.07.1-.44.32-.97.91-1.27.33-.18.6-.21,1.76-.21,1.19,0,1.45.03,1.8.22.53.29.74.76.83,1.16l5.33-.25c.02-.14.05-.28.11-.43.11-.28.35-.67.9-.9.38-.16,3.19-.8,4.02-.46.5.21.83.57,1,1.1,1.04-.18,3.39-.65,4.57-.93.15-1.31,1.21-1.74,1.88-1.88.5-.1,1.58-.19,2.23.73,1.87-.58,6.24-2.33,7.25-2.82,4.17-2.01,9.24-5.47,9.82-8.62.26-1.43-.14-4.34-.68-5.38-.28-.02-.6-.11-.89-.37-.79-.69-1.28-1.26-1.64-1.68-.67-.78-.77-.9-2.84-.97-1.24-.04-2.46-.06-3.63-.08-4.1-.06-7.96-.13-12.36-1.12-.72-.16-1.4-.38-2.07-.6-.87-.28-1.69-.55-2.49-.65-.44-.06-.83-.31-1.06-.67-.3-.18-1.01-.47-1.45-.65-1.37-.56-2.16-.91-2.57-1.59-.13-.22-.19-.44-.21-.64-.32-.17-.83-.36-1.14-.47-.44-.16-.9-.33-1.31-.55-.53-.28-.84-.86-.77-1.46-.02-.06-.22-.27-.65-.42-.03,0-.12-.03-.19-.04-.12-.02-.26-.06-.41-.1-.23.02-.57.04-.94-.1-.18-.07-.33-.16-.46-.28-.74-.37-2.41-1.23-2.72-1.53-.35-.33-.57-.72-.78-1.11-.11-.2-.3-.54-.42-.65-.02,0-.05,0-.09.02-.52.15-1.08,0-1.46-.39-.21-.19-.93-.62-1.23-.72-.62-.06-1.13-.49-1.29-1.08-.11-.13-.34-.33-.48-.45-.21-.19-.42-.38-.61-.58l-.05-.05c-1.29-1.46-1.58-1.67-2.66-1.28-.62.22-1.3.01-1.69-.5-.11-.12-.37-.36-.52-.47-.24-.11-.45-.29-.61-.51-.22-.32-.3-.71-.23-1.09-.07-.05-.16-.11-.22-.15-.27-.18-.61-.41-.88-.76-.19-.24-.37-.55-.58-.91-.1-.17-.26-.44-.39-.65-.14.02-.31.04-.5.03-.11,0-.21,0-.3,0-.36-.03-.7-.19-.95-.46-2.44-2.58-4.97-5.25-7.8-7.37-.08-.06-.29-.14-.44-.2-.23-.09-.47-.18-.71-.35-.31-.22-.54-.52-.78-.83-.08-.11-.22-.29-.29-.36-.62-.43-.87-.29-.97-.23-.9.51-1.71,2.97-1.58,4.8.07.93.46,1.91.87,2.96.37.92.74,1.88.94,2.9.1.53-.09,1.07-.5,1.41-3.9,3.27-9.35,7.17-15.22,7.17-1.6,0-3.23-.29-4.86-.96-.29-.12-.54-.33-.7-.6-.2-.32-.44-.64-.69-.97-.37-.48-.75-.99-1.08-1.59-.52-.96-.9-2.18-1.28-3.36-.45-1.43-1.21-3.81-1.96-4.02-.27-.08-.97.17-2.03,1.11-.13.12-.28.21-.45.27-.15.06-.67.37-.84.5-.17.13-.35.21-.54.26-.06.21-.16.41-.31.58-1.32,1.51-1.99,3.54-2.69,5.69-.22.69-.46,1.4-.71,2.08-.19.52-.38,1.03-.58,1.55-1.67,4.43-3.24,8.62-2.9,13.26.02.27-.03.54-.16.78-.2.4-.23.85-.28,1.42-.03.36-.05.74-.13,1.14-.05.26-.1.58-.16.93-.16.93-.34,1.98-.51,2.61-.04.13-.3.98-.36,1.17-.21.55-.65,1.22-1.16,2-.39.6-1.11,1.7-1.23,2.11,0,.7-.49,1.31-1.19,1.45,0,0,0,0,0,0,.02.34.28,1.09.85,1.98,1.56,2.42,5.75,4.52,9.09,5.34.77.19,3.23.61,4.56.75.1-.43.33-.94.93-1.23.49-.23,2.82-.24,3.31,0,.63.3.87.84.96,1.3.43,0,.93,0,1.35,0,.08-.47.28-1.09.97-1.41.5-.24,2.83-.23,3.32,0,.65.31.88.86.96,1.32,1.3.03,3.62.01,4.81-.02.07-.5.3-1.21,1.1-1.56.25-.11.45-.19,2.8-.21,2.46-.02,2.71.08,3.11.38.44.33.57.77.62,1.13,1.26-.07,2.51-.04,3.73-.01,1.26.03,2.45.05,3.63-.02.12,0,.4-.02.72-.03.16,0,.37-.01.57-.02.07-.48.28-1.1.97-1.43.47-.22,2.21-.22,2.68,0,.58.28.9.76.97,1.44,0,0,0,0,0,0,.19-.45.52-.99,1.17-1.3.63-.3,1.37-.28,2.2.05.5.2,1.05.63,1.15,1.55.7.07,1.63.14,2.23.18.13-.58.44-.99.94-1.22.47-.22,2.41-.22,2.88,0,.66.32.89.88.97,1.34ZM42.26,81.9h0,0ZM103.81,81.18h0ZM109.51,80.02s0,0,0,0t0,0ZM112.27,79.22h0ZM20.24,73.82h0,0ZM21.55,72.37h0ZM21.55,72.22s0,0,0,0c0,0,0,0,0,0ZM129.16,61.92h0ZM92.53,49.89s.07.03.11.05c-.02,0-.05-.02-.11-.05ZM91.84,48.36h0s0,0,0,0ZM85.56,45.39h0,0ZM84.25,44.03s0,0,0,0c0,0,0,0,0,0ZM78.75,41.34s.03.05.06.09c-.02-.03-.04-.06-.06-.09ZM78.72,41.1s0,0,0,0c0,0,0,0,0,0ZM78.72,41.1s0,0,0,0c0,0,0,0,0,0ZM78.25,40.94s0,0,0,0c0,0,0,0,0,0ZM63.66,27.39s0,0,0,0c0,0,0,0,0,0Z"/>
    <g>
      <path class="st4" d="M26.41,148.78c0,1.28-.42,2.34-1.27,3.16-.85.82-2.03,1.25-3.54,1.29-.38,0-.79-.06-1.22-.18-.8-.22-1.21-.34-1.25-.34-.42-.09-.84-.18-1.26-.27-.42-.1-.79-.29-1.1-.58-.47-.42-.85-1.09-1.14-2.03-.36-1.09-.64-1.78-.83-2.05-.14-.14-.3-.38-.49-.73-.05-.26,0-.52.14-.77.15-.25.32-.41.53-.48.1-.03.29-.05.57-.05.61,0,1.35.07,2.22.22.88.15,1.37.28,1.47.4s.24.75.42,1.87c.16,1.04.39,1.62.7,1.74.07.04.15.05.23.05.33,0,.61-.27.84-.82.23-.55.35-1.17.35-1.86,0-1.51-.47-2.51-1.4-3.02-2.15-1.16-3.66-2.24-4.52-3.22-1.01-1.14-1.46-2.5-1.35-4.06.09-1.3.56-2.61,1.42-3.94s1.76-2.1,2.72-2.33c.4-.09,1.61.29,3.64,1.14.5.19,1.01.39,1.52.6.51.21.92.51,1.23.91.49.61.73,1.66.73,3.15,0,.28,0,.69-.03,1.22-.02.47-.03.8-.03.99.02.12.08.32.18.6.09.19.12.38.1.57-.03.76-.36,1.19-.96,1.27-.35.05-.99-.08-1.92-.39-1.04-.33-1.7-.68-1.98-1.07-.04-.05-.05-.22-.05-.52,0-.26.03-.85.09-1.77.06-.92.09-1.59.09-2,0-.75-.09-1.11-.26-1.09-.54.04-.98.42-1.34,1.16s-.53,1.57-.53,2.51c0,1.56.46,2.67,1.38,3.33,1.04.66,2.08,1.32,3.12,1.98.99.64,1.67,1.28,2.05,1.92.49.83.73,1.99.73,3.48Z"/>
      <path class="st4" d="M40.32,151.93c-.09.5-.28.82-.57.96-.12.05-.34.08-.65.08-.59,0-1.29-.09-2.11-.27-.81-.18-1.31-.36-1.48-.53-.07-.09-.1-.19-.1-.31,0-.14.08-.4.23-.78.1-.14.22-.29.34-.46.12-.16.18-.38.18-.64.03-6.83-.02-10.27-.16-10.32-.26-.09-.86.55-1.79,1.9-1.01,1.44-1.51,2.59-1.51,3.46v5.77c.28.28.37.64.29,1.09-.1.54-.38.9-.83,1.09-.07.03-.17.05-.31.05-.47,0-1.15-.11-2.05-.33s-1.4-.38-1.48-.48c-.19-.28-.21-.6-.05-.96.02-.05.1-.14.25-.27.15-.13.22-.26.22-.38v-18.38c0-.14-.07-.32-.21-.55-.14-.23-.18-.42-.13-.57.1-.36.37-.6.81-.7.28-.07.93.03,1.95.29,1.11.28,1.72.56,1.82.86.07.19.04.48-.08.86-.12.38-.18.85-.18,1.4v4.86c.97-1.23,1.91-1.85,2.81-1.85.59,0,1.35.2,2.29.61s1.47.78,1.61,1.1c.49,1.11.73,5.21.73,12.3.17.42.23.78.18,1.09Z"/>
      <path class="st4" d="M51.37,137.6c.95.45,1.69,1.36,2.21,2.73.47,1.25.7,2.72.7,4.42,0,2.34-.4,4.37-1.2,6.08-.88,1.84-1.98,2.67-3.3,2.5-.49-.12-1.21-.27-2.18-.44-.71-.09-1.35-.22-1.92-.39-.99-.26-1.78-1.1-2.37-2.52-.54-1.32-.81-2.86-.81-4.63s.28-3.41.83-4.86c.62-1.59,1.5-2.71,2.63-3.35.19-.1.45-.16.78-.16.35,0,1.03.11,2.05.34.66,0,1.52.1,2.57.29ZM48.46,139.94c-.47,0-.9.57-1.3,1.7-.4,1.14-.6,2.22-.6,3.26,0,1.25.15,2.48.44,3.69.33,1.32.71,2.03,1.14,2.13.55.12,1.05-.5,1.48-1.87.42-1.32.62-2.77.62-4.37,0-.88-.11-1.76-.34-2.63-.31-1.28-.8-1.92-1.46-1.92Z"/>
      <path class="st4" d="M67.02,147.95c.16.26-.18,1.03-1.01,2.31-.9,1.37-1.79,2.3-2.65,2.78-.1.05-.26.08-.47.08-.68,0-1.56-.21-2.65-.62-1.16-.42-1.92-.87-2.29-1.35-1.01-1.3-1.51-3.1-1.51-5.41,0-2.18.44-4.11,1.33-5.77.95-1.82,2.17-2.75,3.64-2.78.54-.02,1.19.12,1.95.42.94.36,1.71.86,2.31,1.48.16.16.3.62.44,1.4.17.83.26,1.65.26,2.44,0,1.18-.19,1.99-.57,2.44-1.79.57-3.61.89-5.46.96-.04.85.07,1.74.31,2.68.24.94.49,1.41.75,1.43.35.02.76-.27,1.25-.86.43-.5.7-.93.81-1.27.12-.52.29-1.06.49-1.61.28-.03.82.1,1.64.42.81.31,1.29.59,1.43.83ZM62.39,139.99c-.29-.03-.71.43-1.23,1.4-.53.97-.84,1.9-.92,2.78.78-.04,1.4-.23,1.87-.57.28-.21.42-1.07.42-2.6,0-.64-.04-.98-.13-1.01Z"/>
      <path class="st4" d="M86.52,133.47c-.04.28-.16.57-.36.88-.26.36-.55.56-.88.6-.12.02-.28-.01-.47-.09s-.34-.12-.44-.12c-.31,0-1.06.25-2.24.75-1.28.54-2.21,1.03-2.78,1.48v4.76c.09-.03.49-.28,1.22-.73.48-.29.88-.45,1.17-.47.31-.02.89.47,1.74,1.46.85.99,1.26,1.65,1.22,1.98-.03.31-.21.62-.52.94-.24.24-.49.4-.73.47-.1.04-.24.01-.42-.06-.17-.08-.29-.12-.36-.12-.05,0-.1.02-.16.05-.5.21-.95.4-1.33.57-.95.43-1.57.79-1.85,1.07v3.8c0,.16.09.34.27.56.18.22.27.45.27.69-.04.97-.49,1.55-1.38,1.74-.97-.45-1.79-.94-2.47-1.48-.75-.61-1.12-1.13-1.12-1.59v-17.19c0-.28-.1-.56-.3-.84-.2-.29-.28-.5-.25-.64.05-.28.22-.54.49-.79.28-.25.59-.39.94-.43.16-.02.63.23,1.43.74.8.51,1.33.79,1.59.85l2.86-1.17c.23-.17.61-.37,1.17-.6.43-.05,1.16.33,2.18,1.16,1.02.82,1.52,1.42,1.48,1.78Z"/>
      <path class="st4" d="M92.94,151.98c.07.62-.15,1.01-.65,1.17-.09.02-.21.03-.36.03-.62,0-1.4-.13-2.31-.39-.99-.28-1.57-.57-1.74-.88-.09-.14,0-.41.23-.81.16-.26.23-.74.23-1.43v-10.92c-.21-.66-.31-1.1-.31-1.33s.32-.34.96-.34c.52,0,1.24.16,2.17.48.93.32,1.49.6,1.68.84.05.07.08.16.08.26,0,.14-.1.4-.3.78-.2.38-.3.67-.3.86v10.45c0,.17.1.39.3.65.2.26.31.45.32.57ZM93.02,134.01s.03.1.03.21c0,.38-.08.88-.23,1.48-.17.66-.34,1.02-.49,1.09-.17.07-.92-.12-2.24-.56-1.32-.44-2.02-.76-2.11-.95-.05-.09-.08-.22-.08-.39,0-.47.12-.96.36-1.48.28-.59.59-.92.94-.99.4-.07,1.09.08,2.08.46.99.37,1.57.75,1.74,1.13Z"/>
      <path class="st4" d="M107.3,150.83c.14.33.21.66.21.99,0,.52-.2.88-.6,1.07-.12.05-.34.08-.65.08-.59,0-1.29-.09-2.11-.27-.81-.18-1.31-.36-1.48-.53-.09-.1-.13-.22-.13-.34,0-.19.13-.5.39-.92.26-.42.39-.73.39-.92.03-6.83-.02-10.27-.16-10.32-.24-.09-.84.69-1.79,2.34-1.01,1.73-1.51,3.04-1.51,3.93v4.86c.23.23.34.5.34.83,0,.66-.29,1.11-.88,1.35-.07.03-.17.05-.31.05-.47,0-1.15-.11-2.05-.33s-1.4-.39-1.51-.53c-.1-.14-.16-.29-.16-.47s.1-.38.3-.62c.2-.24.3-.4.3-.47v-12.09c0-.14-.07-.32-.21-.55-.14-.23-.18-.42-.13-.57.1-.36.37-.6.81-.7.28-.07.93.03,1.95.29,1.11.28,1.72.56,1.82.86.07.19.04.48-.08.86-.19.61-.29.95-.29,1.04,0,.19.03.4.1.62.26-.87.62-1.64,1.09-2.31.57-.81,1.14-1.22,1.72-1.22s1.35.2,2.29.61,1.47.78,1.61,1.1c.49,1.11.73,5.21.73,12.3Z"/>
      <path class="st4" d="M121.86,132.51c.03.17-.03.51-.2,1.01s-.25.79-.25.86v16.95c0,.57.04.93.13,1.07.26.45.34.75.23.91-.09.14-.31.21-.68.21-.4,0-1.01-.08-1.82-.23-.92-.19-1.4-.29-1.46-.29-.31-.04-.54-.24-.68-.62-.02-.04-.03-.15-.03-.34,0-.71.09-1.77.29-3.17-.42.83-.82,1.66-1.22,2.5-.57,1.02-1.08,1.49-1.53,1.4-3.42-.69-5.12-2.79-5.12-6.29,0-1.99.55-4.02,1.64-6.08,1.06-1.99,2.22-3.29,3.48-3.9.17-.09.34-.13.49-.13.43,0,1.19.54,2.26,1.61v-5.04c-.02-.14-.1-.38-.23-.74s-.21-.62-.21-.79c0-.36.24-.55.73-.55.43,0,1.06.12,1.87.36.52.17,1.03.34,1.53.49.43.12.68.39.75.81ZM117.33,139.21c-.97.43-1.85,1.39-2.64,2.86-.79,1.47-1.18,2.84-1.18,4.11,0,1.47.57,2.28,1.72,2.42.61.07,1.31-3.06,2.11-9.39Z"/>
      <path class="st4" d="M133.92,147.95c.16.26-.18,1.03-1.01,2.31-.9,1.37-1.79,2.3-2.65,2.78-.1.05-.26.08-.47.08-.68,0-1.56-.21-2.65-.62-1.16-.42-1.92-.87-2.29-1.35-1.01-1.3-1.51-3.1-1.51-5.41,0-2.18.44-4.11,1.33-5.77.95-1.82,2.17-2.75,3.64-2.78.54-.02,1.19.12,1.95.42.94.36,1.71.86,2.31,1.48.16.16.3.62.44,1.4.17.83.26,1.65.26,2.44,0,1.18-.19,1.99-.57,2.44-1.79.57-3.61.89-5.46.96-.04.85.07,1.74.31,2.68.24.94.49,1.41.75,1.43.35.02.76-.27,1.25-.86.43-.5.7-.93.81-1.27.12-.52.29-1.06.49-1.61.28-.03.82.1,1.64.42.81.31,1.29.59,1.43.83ZM129.29,139.99c-.29-.03-.71.43-1.23,1.4-.53.97-.84,1.9-.92,2.78.78-.04,1.4-.23,1.87-.57.28-.21.42-1.07.42-2.6,0-.64-.04-.98-.13-1.01Z"/>
      <path class="st4" d="M145.67,138.72c.07.28-.03.5-.29.68-.21.1-.41.22-.6.34-1.09,1.66-2.57,3.91-4.45,6.73,0,2.76,0,4.18.03,4.26.02.09.08.31.19.66.11.36.17.64.17.84,0,.33-.15.55-.44.68-.19.09-.45.13-.78.13-.66,0-1.39-.15-2.18-.44-1.01-.35-1.51-.79-1.51-1.33,0-.16.07-.41.21-.75s.21-.63.21-.86v-10.3c-.19-.97-.29-1.47-.29-1.51,0-.54.24-.88.73-1.01.21-.05.46-.08.75-.08.61,0,1.24.1,1.91.3.67.2,1.06.41,1.18.64.03.07.05.16.05.26,0,.09-.12.5-.36,1.25v1.25c.42-.74.82-1.49,1.22-2.24.54-.94.94-1.43,1.2-1.48.38-.07.96.16,1.74.68.78.52,1.21.95,1.3,1.3Z"/>
    </g>
  </g>
</svg>